<svg width="494" height="555" viewBox="0 0 594 555" fill="none" xmlns="http://www.w3.org/2000/svg">
    <style>
        #flame{
            animation: grow 1s linear 0s infinite;
        }
        #inner-flame{
            animation: grow 1s linear 0s infinite;
        }

        #spaceman{
            animation: move 2s ease-in-out 0s infinite alternate;
        }

        @keyframes grow{
            0%{
                opacity: 0.4;
            }100%{
                opacity: 1;
            }
            
        }

        @keyframes move{
            0%{
                transform: translateY(30px);
            }100%{
                transform: translateY(1px);

            }
            
        }
    </style>
    <g id="spaceman">
    <g id="flame">
<path d="M4.84491 518.949L12.8496 534.001H4.84491V518.949Z" fill="#EC1C24"/>
<path d="M4.84491 517.072L13.8454 534.001H12.8496L4.84491 518.949V517.072Z" fill="#EC1C24"/>
<path d="M4.84491 515.215L14.8412 534.001H13.8454L4.84491 517.072V515.215Z" fill="#EC1C24"/>
<path d="M4.84491 513.338L15.8371 534.001H14.8412L4.84491 515.215V513.338Z" fill="#EC1C24"/>
<path d="M4.84491 511.461L16.8328 534.001H15.837L4.84491 513.338V511.461Z" fill="#EC1C24"/>
<path d="M4.84491 509.585L17.8095 534.001H16.8328L4.84491 511.461V509.585Z" fill="#EC1C24"/>
<path d="M4.84491 507.727L18.8053 534.001H17.8095L4.84491 509.585V507.727Z" fill="#EC1C24"/>
<path d="M4.84491 505.85L19.8011 534.001H18.8053L4.84491 507.727V505.85Z" fill="#EC1D24"/>
<path d="M4.84491 503.974L20.7969 534.001H19.8011L4.84491 505.851V503.974Z" fill="#EC1D24"/>
<path d="M4.84491 502.116L21.7927 534.001H20.7969L4.84491 503.974V502.116Z" fill="#EC1D24"/>
<path d="M4.84491 500.24L22.7885 534.001H21.7927L4.84491 502.116V500.24Z" fill="#EC1D24"/>
<path d="M4.84491 498.363L23.7843 534.001H22.7885L4.84491 500.24V498.363Z" fill="#EC1D24"/>
<path d="M4.84491 496.486L24.7801 534.001H23.7843L4.84491 498.363V496.486Z" fill="#EC1E24"/>
<path d="M4.84491 494.629L25.7759 534.001H24.7801L4.84491 496.486V494.629Z" fill="#EC1E24"/>
<path d="M4.84491 492.752L26.7717 534.001H25.7759L4.84491 494.629V492.752Z" fill="#EC1E24"/>
<path d="M4.84491 490.875L27.7675 534.001H26.7717L4.84491 492.752V490.875Z" fill="#EC1F24"/>
<path d="M4.84491 488.998L28.7633 534.001H27.7675L4.84491 490.875V488.998Z" fill="#EC1F24"/>
<path d="M4.84491 487.141L29.7591 534.001H28.7633L4.84491 488.998V487.141Z" fill="#EC1F24"/>
<path d="M4.84491 485.264L30.7549 534.001H29.7591L4.84491 487.141V485.264Z" fill="#EC2024"/>
<path d="M4.84491 483.387L31.7507 534.001H30.7549L4.84491 485.264V483.387Z" fill="#EC2024"/>
<path d="M4.84491 481.53L32.7465 534.001H31.7507L4.84491 483.387V481.53Z" fill="#EC2024"/>
<path d="M4.84491 479.653L33.7423 534.001H32.7465L4.84491 481.53V479.653Z" fill="#ED2124"/>
<path d="M4.84491 477.777L34.7381 534.001H33.7423L4.84491 479.653V477.777Z" fill="#ED2124"/>
<path d="M4.84491 475.9L35.7339 534.001H34.7381L4.84491 477.777V475.9Z" fill="#ED2124"/>
<path d="M4.84491 475.498L5.45771 475.172L36.7297 534.001H35.7339L4.84491 475.9V475.498Z" fill="#ED2224"/>
<path d="M5.45776 475.172L6.22376 474.77L37.7255 534.001H36.7297L5.45776 475.172Z" fill="#ED2224"/>
<path d="M6.22375 474.77L7.0089 474.349L38.7213 534.001H37.7255L6.22375 474.77Z" fill="#ED2324"/>
<path d="M7.00888 474.349L7.77488 473.946L39.7171 534.001H38.7213L7.00888 474.349Z" fill="#ED2324"/>
<path d="M7.77484 473.947L8.56 473.525L40.7128 534.001H39.717L7.77484 473.947Z" fill="#ED2424"/>
<path d="M8.56 473.525L9.326 473.123L41.7087 534.001H40.7129L8.56 473.525Z" fill="#ED2424"/>
<path d="M9.32602 473.123L10.1112 472.702L42.7045 534.001H41.7087L9.32602 473.123Z" fill="#ED2524"/>
<path d="M10.1112 472.702L10.8772 472.28L43.7003 534.001H42.7045L10.1112 472.702Z" fill="#ED2524"/>
<path d="M10.8772 472.281L11.6623 471.878L44.6961 534.001H43.7003L10.8772 472.281Z" fill="#ED2624"/>
<path d="M11.6623 471.878L12.4283 471.457L45.6919 534.001H44.6961L11.6623 471.878Z" fill="#ED2624"/>
<path d="M12.4283 471.457L13.2135 471.055L46.6877 534.001H45.6919L12.4283 471.457Z" fill="#ED2724"/>
<path d="M13.2135 471.055L13.9795 470.634L47.6643 534.001H46.6877L13.2135 471.055Z" fill="#ED2724"/>
<path d="M13.9795 470.634L14.7646 470.231L48.6601 534.001H47.6643L13.9795 470.634Z" fill="#ED2824"/>
<path d="M14.7646 470.231L15.5306 469.81L49.6559 534.001H48.6601L14.7646 470.231Z" fill="#ED2824"/>
<path d="M15.5306 469.81L16.3158 469.408L50.6517 534.001H49.6559L15.5306 469.81Z" fill="#ED2924"/>
<path d="M16.3158 469.408L17.0818 468.987L51.6475 534.001H50.6517L16.3158 469.408Z" fill="#ED2A24"/>
<path d="M17.0818 468.987L17.8669 468.585L52.6433 534.001H51.6475L17.0818 468.987Z" fill="#EE2A24"/>
<path d="M17.8669 468.585L18.6329 468.163L53.6391 534.001H52.6433L17.8669 468.585Z" fill="#EE2B24"/>
<path d="M18.6329 468.163L19.4181 467.742L54.6349 534.001H53.6391L18.6329 468.163Z" fill="#EE2B24"/>
<path d="M19.418 467.742L20.184 467.34L55.6307 534.001H54.6349L19.418 467.742Z" fill="#EE2C24"/>
<path d="M20.1841 467.34L20.9692 466.918L56.6265 534.001H55.6307L20.1841 467.34Z" fill="#EE2D24"/>
<path d="M20.9692 466.919L21.7352 466.516L57.6223 534.001H56.6265L20.9692 466.919Z" fill="#EE2D24"/>
<path d="M21.7352 466.516L22.5203 466.095L58.6181 534.001H57.6223L21.7352 466.516Z" fill="#EE2E24"/>
<path d="M22.5204 466.095L23.2864 465.693L59.614 534.001H58.6181L22.5204 466.095Z" fill="#EE2F24"/>
<path d="M23.2864 465.693L24.0715 465.272L60.6097 534.001H59.6139L23.2864 465.693Z" fill="#EE2F24"/>
<path d="M24.0716 465.272L24.8376 464.869L61.6056 534.001H60.6098L24.0716 465.272Z" fill="#EE3024"/>
<path d="M24.8376 464.869L25.6227 464.448L62.6014 534.001H61.6056L24.8376 464.869Z" fill="#EE3124"/>
<path d="M25.6227 464.448L26.3887 464.046L63.5971 534.001H62.6013L25.6227 464.448Z" fill="#EE3224"/>
<path d="M26.3887 464.046L27.1738 463.625L64.5929 534.001H63.5971L26.3887 464.046Z" fill="#EE3225"/>
<path d="M27.1738 463.625L27.9398 463.223L65.5887 534.001H64.5929L27.1738 463.625Z" fill="#EF3325"/>
<path d="M27.9398 463.223L28.725 462.801L66.5845 534.001H65.5887L27.9398 463.223Z" fill="#EF3425"/>
<path d="M28.725 462.801L29.491 462.38L67.5803 534.001H66.5845L28.725 462.801Z" fill="#EF3525"/>
<path d="M29.491 462.38L30.2761 461.978L68.5761 534.001H67.5803L29.491 462.38Z" fill="#EF3525"/>
<path d="M30.2761 461.978L31.0421 461.556L69.5719 534.001H68.5761L30.2761 461.978Z" fill="#EF3625"/>
<path d="M31.0421 461.556L31.8273 461.154L70.5677 534.001H69.5719L31.0421 461.556Z" fill="#EF3725"/>
<path d="M31.8273 461.154L32.5933 460.733L71.5636 534.001H70.5677L31.8273 461.154Z" fill="#EF3825"/>
<path d="M32.5933 460.733L33.3785 460.331L72.5594 534.001H71.5636L32.5933 460.733Z" fill="#EF3925"/>
<path d="M33.3784 460.331L34.1636 459.91L73.5551 534.001H72.5593L33.3784 460.331Z" fill="#EF3925"/>
<path d="M34.1636 459.91L34.9296 459.507L74.5509 534.001H73.5552L34.1636 459.91Z" fill="#EF3A25"/>
<path d="M34.9296 459.507L35.7148 459.086L75.5468 534.001H74.551L34.9296 459.507Z" fill="#EF3B25"/>
<path d="M35.7148 459.086L36.4808 458.684L76.5426 534.001H75.5468L35.7148 459.086Z" fill="#EF3C25"/>
<path d="M36.4807 458.684L37.2659 458.263L77.5383 534.001H76.5426L36.4807 458.684Z" fill="#F03D25"/>
<path d="M37.2659 458.263L38.0319 457.841L78.515 534.001H77.5384L37.2659 458.263Z" fill="#F03E25"/>
<path d="M38.0319 457.841L38.817 457.439L79.5107 534.001H78.5149L38.0319 457.841Z" fill="#F03E25"/>
<path d="M38.817 457.439L39.583 457.018L80.5066 534.001H79.5108L38.817 457.439Z" fill="#F03F25"/>
<path d="M39.583 457.018L40.3682 456.616L81.5024 534.001H80.5066L39.583 457.018Z" fill="#F04025"/>
<path d="M40.3682 456.616L41.1342 456.194L82.4982 534.001H81.5024L40.3682 456.616Z" fill="#F04125"/>
<path d="M41.1342 456.195L41.9193 455.792L83.494 534.001H82.4982L41.1342 456.195Z" fill="#F04225"/>
<path d="M41.9193 455.792L42.6853 455.371L84.4898 534.001H83.494L41.9193 455.792Z" fill="#F04325"/>
<path d="M42.6853 455.371L43.4705 454.969L85.4856 534.001H84.4898L42.6853 455.371Z" fill="#F04425"/>
<path d="M43.4705 454.969L44.2365 454.548L86.4814 534.001H85.4856L43.4705 454.969Z" fill="#F04525"/>
<path d="M44.2365 454.548L45.0216 454.145L87.4772 534.001H86.4814L44.2365 454.548Z" fill="#F14625"/>
<path d="M45.0216 454.145L45.7876 453.724L88.473 534.001H87.4772L45.0216 454.145Z" fill="#F14725"/>
<path d="M45.7877 453.724L46.5728 453.303L89.4688 534.001H88.473L45.7877 453.724Z" fill="#F14825"/>
<path d="M46.5728 453.303L47.3388 452.901L90.4646 534.001H89.4688L46.5728 453.303Z" fill="#F14925"/>
<path d="M47.3388 452.901L48.1239 452.479L91.4603 534.001H90.4645L47.3388 452.901Z" fill="#F14A25"/>
<path d="M48.124 452.479L48.89 452.077L92.4562 534.001H91.4604L48.124 452.479Z" fill="#F14B25"/>
<path d="M48.8899 452.077L49.675 451.656L93.4519 534.001H92.4561L48.8899 452.077Z" fill="#F14C25"/>
<path d="M49.675 451.656L50.441 451.254L94.4478 534.001H93.4519L49.675 451.656Z" fill="#F14D25"/>
<path d="M50.4411 451.254L51.2263 450.832L95.4436 534.001H94.4478L50.4411 451.254Z" fill="#F14E25"/>
<path d="M51.2263 450.832L51.9923 450.43L96.4394 534.001H95.4436L51.2263 450.832Z" fill="#F24F25"/>
<path d="M51.9922 450.43L52.7774 450.009L97.4352 534.001H96.4394L51.9922 450.43Z" fill="#F25025"/>
<path d="M52.7774 450.009L53.5434 449.607L98.431 534.001H97.4352L52.7774 450.009Z" fill="#F25125"/>
<path d="M53.5434 449.607L54.3286 449.186L99.4268 534.001H98.431L53.5434 449.607Z" fill="#F25225"/>
<path d="M54.3285 449.186L55.0945 448.783L100.212 533.599L99.4459 534.001H99.4267L54.3285 449.186Z" fill="#F25325"/>
<path d="M55.8691 448.341L55.0914 448.754L100.19 533.563L100.968 533.149L55.8691 448.341Z" fill="#F25425"/>
<path d="M56.6498 447.942L55.872 448.356L100.97 533.164L101.748 532.75L56.6498 447.942Z" fill="#F25525"/>
<path d="M57.4211 447.517L56.6433 447.931L101.742 532.739L102.52 532.326L57.4211 447.517Z" fill="#F25625"/>
<path d="M58.1938 447.1L57.416 447.514L102.515 532.322L103.292 531.909L58.1938 447.1Z" fill="#F25725"/>
<path d="M58.9637 446.704L58.1859 447.118L103.284 531.926L104.062 531.512L58.9637 446.704Z" fill="#F35825"/>
<path d="M59.7485 446.274L58.9708 446.688L104.069 531.496L104.847 531.082L59.7485 446.274Z" fill="#F35925"/>
<path d="M60.5167 445.879L59.7389 446.293L104.837 531.101L105.615 530.688L60.5167 445.879Z" fill="#F35A25"/>
<path d="M61.3048 445.446L60.5271 445.859L105.626 530.668L106.403 530.254L61.3048 445.446Z" fill="#F35C25"/>
<path d="M62.0686 445.056L61.2909 445.47L106.389 530.278L107.167 529.864L62.0686 445.056Z" fill="#F35D25"/>
<path d="M62.8485 444.631L62.0708 445.045L107.169 529.853L107.947 529.44L62.8485 444.631Z" fill="#F35E26"/>
<path d="M63.6286 444.224L62.8509 444.637L107.949 529.445L108.727 529.032L63.6286 444.224Z" fill="#F35F26"/>
<path d="M64.4004 443.808L63.6227 444.222L108.721 529.03L109.499 528.616L64.4004 443.808Z" fill="#F36026"/>
<path d="M65.1817 443.399L64.4039 443.813L109.502 528.621L110.28 528.207L65.1817 443.399Z" fill="#F46126"/>
<path d="M65.9524 442.985L65.1746 443.398L110.273 528.206L111.051 527.793L65.9524 442.985Z" fill="#F46226"/>
<path d="M66.7244 442.586L65.9467 443L111.045 527.808L111.823 527.394L66.7244 442.586Z" fill="#F46426"/>
<path d="M67.5124 442.152L66.7347 442.566L111.833 527.374L112.611 526.96L67.5124 442.152Z" fill="#F46526"/>
<path d="M68.2674 441.746L67.4896 442.159L112.588 526.967L113.366 526.554L68.2674 441.746Z" fill="#F46626"/>
<path d="M69.0644 441.329L68.2866 441.743L113.385 526.551L114.163 526.137L69.0644 441.329Z" fill="#F46726"/>
<path d="M69.8192 440.922L69.0415 441.336L114.14 526.144L114.918 525.73L69.8192 440.922Z" fill="#F46826"/>
<path d="M70.6082 440.515L69.8305 440.928L114.929 525.736L115.707 525.323L70.6082 440.515Z" fill="#F46A26"/>
<path d="M71.3962 440.081L70.6184 440.494L115.717 525.303L116.495 524.889L71.3962 440.081Z" fill="#F56B26"/>
<path d="M72.1602 439.691L71.3824 440.105L116.481 524.913L117.259 524.499L72.1602 439.691Z" fill="#F56C26"/>
<path d="M72.9481 439.258L72.1703 439.671L117.269 524.479L118.047 524.066L72.9481 439.258Z" fill="#F56D26"/>
<path d="M73.7121 438.868L72.9344 439.281L118.033 524.09L118.811 523.676L73.7121 438.868Z" fill="#F56F26"/>
<path d="M74.4921 438.443L73.7144 438.857L118.813 523.665L119.591 523.251L74.4921 438.443Z" fill="#F57026"/>
<path d="M75.2721 438.035L74.4943 438.449L119.593 523.257L120.371 522.843L75.2721 438.035Z" fill="#F57126"/>
<path d="M76.044 437.62L75.2662 438.033L120.365 522.841L121.142 522.428L76.044 437.62Z" fill="#F57226"/>
<path d="M76.8149 437.195L76.0372 437.609L121.136 522.417L121.913 522.003L76.8149 437.195Z" fill="#F67426"/>
<path d="M77.5959 436.796L76.8181 437.21L121.917 522.018L122.694 521.605L77.5959 436.796Z" fill="#F67526"/>
<path d="M78.3589 436.381L77.5812 436.794L122.68 521.602L123.457 521.189L78.3589 436.381Z" fill="#F67626"/>
<path d="M79.1558 435.964L78.378 436.377L123.477 521.186L124.254 520.772L79.1558 435.964Z" fill="#F67726"/>
<path d="M79.9109 435.557L79.1331 435.971L124.232 520.779L125.009 520.366L79.9109 435.557Z" fill="#F67926"/>
<path d="M80.7076 435.14L79.9299 435.554L125.028 520.362L125.806 519.949L80.7076 435.14Z" fill="#F67A26"/>
<path d="M81.4628 434.734L80.6851 435.148L125.783 519.956L126.561 519.542L81.4628 434.734Z" fill="#F67B26"/>
<path d="M82.2517 434.326L81.474 434.74L126.572 519.548L127.35 519.134L82.2517 434.326Z" fill="#F77D26"/>
<path d="M83.0226 433.901L82.2448 434.315L127.343 519.123L128.121 518.71L83.0226 433.901Z" fill="#F77E26"/>
<path d="M83.8037 433.503L83.0259 433.916L128.124 518.724L128.902 518.311L83.8037 433.503Z" fill="#F77F26"/>
<path d="M84.5745 433.078L83.7968 433.491L128.895 518.3L129.673 517.886L84.5745 433.078Z" fill="#F78126"/>
<path d="M85.3467 432.663L84.5689 433.076L129.667 517.884L130.445 517.471L85.3467 432.663Z" fill="#F78226"/>
<path d="M86.1187 432.264L85.3409 432.677L130.439 517.486L131.217 517.072L86.1187 432.264Z" fill="#F78426"/>
<path d="M86.9063 431.83L86.1285 432.243L131.227 517.052L132.005 516.638L86.9063 431.83Z" fill="#F78526"/>
<path d="M87.6706 431.44L86.8928 431.854L131.991 516.662L132.769 516.248L87.6706 431.44Z" fill="#F88626"/>
<path d="M88.4582 431.006L87.6805 431.42L132.779 516.228L133.557 515.815L88.4582 431.006Z" fill="#F88826"/>
<path d="M89.2225 430.617L88.4448 431.031L133.543 515.839L134.321 515.425L89.2225 430.617Z" fill="#F88927"/>
<path d="M90.0025 430.192L89.2247 430.606L134.323 515.414L135.101 515.001L90.0025 430.192Z" fill="#F88A27"/>
<path d="M90.782 429.784L90.0043 430.198L135.103 515.006L135.881 514.592L90.782 429.784Z" fill="#F88C27"/>
<path d="M91.5544 429.369L90.7767 429.783L135.875 514.591L136.653 514.177L91.5544 429.369Z" fill="#F88D27"/>
<path d="M92.3341 428.961L91.5563 429.375L136.655 514.183L137.433 513.769L92.3341 428.961Z" fill="#F98F27"/>
<path d="M93.1063 428.546L92.3286 428.959L137.427 513.767L138.205 513.354L93.1063 428.546Z" fill="#F99027"/>
<path d="M93.8783 428.147L93.1006 428.56L138.199 513.369L138.977 512.955L93.8783 428.147Z" fill="#F99227"/>
<path d="M94.6659 427.713L93.8881 428.126L138.987 512.935L139.764 512.521L94.6659 427.713Z" fill="#F99327"/>
<path d="M95.4213 427.307L94.6435 427.72L139.742 512.528L140.52 512.115L95.4213 427.307Z" fill="#F99427"/>
<path d="M96.2177 426.889L95.44 427.303L140.538 512.111L141.316 511.698L96.2177 426.889Z" fill="#F99627"/>
<path d="M96.9732 426.483L96.1955 426.897L141.294 511.705L142.072 511.291L96.9732 426.483Z" fill="#F99727"/>
<path d="M97.7696 426.066L96.9919 426.48L142.09 511.288L142.868 510.874L97.7696 426.066Z" fill="#FA9927"/>
<path d="M98.5252 425.66L97.7474 426.073L142.846 510.881L143.624 510.468L98.5252 425.66Z" fill="#FA9A27"/>
<path d="M99.3141 425.252L98.5364 425.666L143.635 510.474L144.413 510.06L99.3141 425.252Z" fill="#FA9C27"/>
<path d="M100.085 424.827L99.3068 425.241L144.405 510.049L145.183 509.635L100.085 424.827Z" fill="#FA9D27"/>
<path d="M100.866 424.429L100.088 424.842L145.187 509.65L145.964 509.237L100.866 424.429Z" fill="#FA9F27"/>
<path d="M101.637 424.004L100.859 424.417L145.957 509.225L146.735 508.812L101.637 424.004Z" fill="#FAA027"/>
<path d="M102.418 423.605L101.64 424.019L146.739 508.827L147.516 508.413L102.418 423.605Z" fill="#FBA227"/>
<path d="M103.198 423.181L102.42 423.594L147.519 508.402L148.296 507.989L103.198 423.181Z" fill="#FBA327"/>
<path d="M103.199 423.199L103.716 422.912H104.042L149.083 507.593L148.298 508.014L103.199 423.199Z" fill="#FBA527"/>
<path d="M105.038 422.912L149.849 507.191L149.083 507.593L104.042 422.912H105.038Z" fill="#FBA627"/>
<path d="M106.034 422.912L150.634 506.77L149.849 507.191L105.038 422.912H106.034Z" fill="#FBA827"/>
<path d="M107.029 422.912L151.4 506.367L150.634 506.77L106.034 422.912H107.029Z" fill="#FBAA27"/>
<path d="M108.025 422.912L152.185 505.946L151.4 506.368L107.029 422.912H108.025Z" fill="#FCAB27"/>
<path d="M109.021 422.912L152.951 505.544L152.185 505.946L108.025 422.912H109.021Z" fill="#FCAD27"/>
<path d="M110.017 422.912L153.736 505.123L152.951 505.544L109.021 422.912H110.017Z" fill="#FCAE27"/>
<path d="M111.013 422.912L154.502 504.721L153.736 505.123L110.017 422.912H111.013Z" fill="#FCB027"/>
<path d="M112.008 422.912L155.287 504.299L154.502 504.721L111.013 422.912H112.008Z" fill="#FCB127"/>
<path d="M113.004 422.912L155.67 503.169V504.089L155.287 504.299L112.008 422.912H113.004Z" fill="#FCB327"/>
<path d="M114 422.912L155.67 501.293V503.169L113.004 422.912H114Z" fill="#FDB528"/>
<path d="M114.996 422.912L155.67 499.416V501.293L114 422.912H114.996Z" fill="#FDB628"/>
<path d="M115.991 422.912L155.67 497.539V499.416L114.996 422.912H115.991Z" fill="#FDB828"/>
<path d="M116.987 422.912L155.67 495.682V497.539L115.992 422.912H116.987Z" fill="#FDB928"/>
<path d="M117.983 422.912L155.67 493.805V495.682L116.987 422.912H117.983Z" fill="#FDBB28"/>
<path d="M118.979 422.912L155.67 491.928V493.805L117.983 422.912H118.979Z" fill="#FEBD28"/>
<path d="M119.975 422.912L155.67 490.071V491.928L118.979 422.912H119.975Z" fill="#FEBE28"/>
<path d="M120.971 422.912L155.67 488.194V490.071L119.975 422.912H120.971Z" fill="#FEC028"/>
<path d="M121.966 422.912L155.67 486.317V488.194L120.971 422.912H121.966Z" fill="#FEC228"/>
<path d="M122.962 422.912L155.67 484.441V486.318L121.966 422.912H122.962Z" fill="#FEC328"/>
<path d="M123.958 422.912L155.67 482.583V484.441L122.962 422.912H123.958Z" fill="#FEC528"/>
<path d="M124.954 422.912L155.67 480.707V482.583L123.958 422.912H124.954Z" fill="#FFC728"/>
<path d="M125.95 422.912L155.67 478.83V480.707L124.954 422.912H125.95Z" fill="#FFC828"/>
<path d="M126.945 422.912L155.67 476.953V478.83L125.949 422.912H126.945Z" fill="#FFCA28"/>
<path d="M155.67 476.953L126.945 422.912H155.67V476.953Z" fill="#FFCA28"/>
</g>
<g opacity="0.5">
<g opacity="0.5">
<path opacity="0.5" d="M31.7698 511.098C58.6756 487.754 54.6541 460.484 84.1642 447.673C121.105 431.644 145.904 467.819 145.904 467.819C145.904 467.819 146.766 471.725 146.957 477.623C147.953 467.187 146.172 459.105 146.172 459.105C146.172 459.105 121.373 422.912 84.4323 438.96C47.492 454.988 63.0992 493.671 4.82581 518.949C14.8987 514.583 23.7843 512.17 31.7698 511.098Z" fill="white"/>
</g>
</g>
<g opacity="0.3">
<path opacity="0.3" d="M145.502 486.356C141.193 493.192 134.624 499.454 124.666 503.782C94.1031 517.053 76.0446 491.756 37.7446 496.907C30.3527 504.74 20.1458 512.304 4.84491 518.949C63.0992 493.671 81.7896 534.001 118.73 517.953C135.371 510.734 142.591 498.095 145.502 486.356Z" fill="#371A45"/>
</g>
<g id="inner-flame">

    <path d="M50.9773 499.818C84.8919 485.092 107.853 508.57 129.358 499.225C150.864 489.899 143.089 459.795 143.089 459.795C143.089 459.795 126.409 433.559 104.904 442.885C83.3982 452.211 84.8919 485.092 50.9773 499.818Z" fill="#FFD553"/>
    <path  d="M100.135 525.077C91.0391 525.077 82.5365 522.626 73.7466 520.079C55.9563 514.947 35.7913 509.106 4.4045 522.741C2.81505 523.43 0.957493 522.702 0.268093 521.113C0.095743 520.711 0 520.289 0 519.868C0 518.662 0.708543 517.494 1.89584 516.977C33.3401 503.323 43.1449 485.283 51.8007 469.37C59.0011 456.118 65.7994 443.613 83.1876 436.087C99.3119 429.097 115.8 430.572 130.871 440.396C142.074 447.692 148.489 456.941 148.757 457.343C148.987 457.669 149.14 458.052 149.236 458.435C149.332 458.895 151.725 469.906 149.389 483.081C146.268 500.795 136.08 513.855 119.956 520.864C112.889 523.909 106.378 525.077 100.135 525.077ZM41.4023 507.976C54.5009 507.976 65.3589 511.117 75.4893 514.047C89.7943 518.183 102.127 521.745 117.466 515.081C149.37 501.235 144.123 465.406 143.223 460.369C140.044 456.022 117.868 427.872 85.6962 441.832C70.3188 448.515 64.3057 459.565 57.3351 472.357C50.8624 484.249 43.796 497.252 28.3803 508.991C32.9571 508.282 37.285 507.976 41.4023 507.976Z" fill="#371A45"/>
</g>
<path d="M336.523 270.401C336.523 270.401 377.37 287.56 384.283 298.169C391.196 308.778 365.822 309.046 365.822 309.046" fill="white"/>
<path d="M365.822 312.684C364.693 312.684 363.62 312.148 362.931 311.248L333.631 272.603C332.636 271.301 332.655 269.482 333.651 268.199C334.665 266.897 336.408 266.437 337.921 267.088C342.211 268.888 379.993 285.013 387.309 296.215C389.875 300.16 389.224 303.224 388.209 305.101C384.532 311.957 370.17 312.646 365.842 312.684C365.842 312.684 365.842 312.684 365.822 312.684ZM347.994 279.536L367.584 305.369C374.363 305.044 380.913 303.397 381.832 301.673C381.928 301.501 381.736 300.926 381.257 300.16C377.791 294.856 362.088 286.238 347.994 279.536Z" fill="#371A45"/>
<path d="M165.073 180.434C149.217 192.327 134.663 248.934 138.34 282.696C142.016 316.438 201.669 318.966 235.794 317.874C269.919 316.783 269.785 239.646 269.345 218.983C268.655 186.697 188.589 162.797 165.073 180.434Z" fill="white"/>
<g opacity="0.25">
<path opacity="0.25" d="M235.794 317.855C201.669 318.947 142.016 316.419 138.34 282.676C137.861 278.253 137.688 273.446 137.803 268.39C147.225 275.802 160.362 269.214 161.932 260.156C171.699 204.238 192.534 182.79 202.607 175.436C233.304 179.745 268.885 197.497 269.345 218.964C269.804 239.627 269.919 316.763 235.794 317.855Z" fill="#371A45"/>
</g>
<path d="M223.902 321.685C182.672 321.685 138.148 314.312 134.739 283.079C131.178 250.428 144.717 191.158 162.89 177.524C179.014 165.44 216.204 171.204 241.424 183.479C261.474 193.246 272.677 205.808 272.964 218.888C273.788 256.728 270.053 320.402 235.909 321.493C231.964 321.608 227.943 321.685 223.902 321.685ZM189.279 178.041C179.895 178.041 172.025 179.764 167.256 183.345C152.606 194.318 138.416 249.815 141.959 282.313C145.253 312.627 202.109 315.346 235.679 314.255C265.438 313.297 266.204 241.14 265.726 219.06C265.515 208.987 255.499 198.397 238.264 190.01C222.255 182.215 203.928 178.041 189.279 178.041Z" fill="#371A45"/>
<path d="M168.424 237.042L153.277 231.01C149.849 229.65 146 231.584 145.08 235.146C141.902 247.421 136.999 272.852 149.351 278.061C164.307 284.362 169.612 267.107 172.254 243.4C172.561 240.661 170.971 238.076 168.424 237.042Z" fill="white"/>
<g opacity="0.25">
<path opacity="0.25" d="M172.216 243.361C169.65 267.088 164.384 284.362 149.408 278.08C143.261 275.514 141.365 267.912 141.423 259.409C142.668 261.841 144.468 263.718 146.957 264.771C160.362 270.382 165.992 257.13 168.865 237.253C171.144 238.363 172.503 240.795 172.216 243.361Z" fill="#371A45"/>
</g>
<path d="M155.173 282.734C152.951 282.734 150.596 282.217 148.106 281.163C134.414 275.438 137.114 252.534 141.787 234.342C142.457 231.718 144.238 229.497 146.651 228.271C149.083 227.026 151.917 226.912 154.445 227.907L169.592 233.901C173.537 235.472 175.989 239.512 175.529 243.725C173.154 265.518 169.056 276.644 161.779 280.934C159.769 282.14 157.547 282.734 155.173 282.734ZM150.96 233.94C150.519 233.94 150.098 234.035 149.696 234.246C149.274 234.457 148.547 234.974 148.279 236.008C144.027 252.573 142.419 271.512 150.691 274.978C153.832 276.299 156.36 276.357 158.39 275.15C165.877 270.746 168.137 249.853 168.884 242.998C169.018 241.772 168.309 240.604 167.141 240.144L151.994 234.15C151.649 233.997 151.304 233.94 150.96 233.94Z" fill="#371A45"/>
<path d="M162.852 180.492L180.699 188.726C186.636 191.522 192.553 194.28 198.452 197.267C199.352 197.727 199.696 198.819 199.256 199.699C198.835 200.542 197.839 200.906 196.977 200.561L196.939 200.542C190.926 198.148 184.759 195.946 178.631 193.725L160.171 187.194L160.132 187.175C158.237 186.505 157.26 184.437 157.93 182.541C158.6 180.645 160.669 179.669 162.564 180.339C162.641 180.415 162.756 180.454 162.852 180.492Z" fill="#371A45"/>
<path d="M436.945 169.576C431.066 189.646 386.389 226.816 322.294 228.673C316.09 228.865 309.713 228.712 303.164 228.175L297.438 203.74L292.861 184.188C292.861 184.188 302.819 182.369 316.415 178.749C327.159 175.896 340.2 171.932 352.398 166.857C363.907 162.07 374.708 156.305 382.157 149.546C382.157 149.546 382.559 129.438 388.266 127.389C395.237 124.88 400.388 139.032 400.388 139.032C400.388 139.032 416.206 122.736 425.455 124.325C439.186 126.68 443.399 147.573 436.945 169.576Z" fill="white"/>
<g opacity="0.35">
<path opacity="0.35" d="M439.818 153.184C439.55 158.393 438.593 163.946 436.926 169.596C430.473 191.599 377.37 234.189 303.145 228.195L292.842 184.207C292.842 184.207 295.925 183.652 301.019 182.522L313.045 205.827C374.383 224.307 429.745 175.819 439.818 153.184Z" fill="#371A45"/>
</g>
<path d="M317.239 232.388C312.528 232.388 307.76 232.197 302.876 231.814C300.885 231.661 299.391 229.899 299.544 227.907C299.698 225.916 301.459 224.422 303.451 224.575C376.642 230.473 427.753 187.98 433.46 168.562C437.52 154.697 437.137 140.89 432.445 133.383C430.511 130.281 427.945 128.442 424.843 127.906C419.787 127.044 409.006 135.375 402.993 141.579L398.971 145.716L396.999 140.296C395.409 135.949 391.732 130.147 389.568 130.798C387.768 132.081 385.987 141.005 385.796 149.622L385.758 151.192L384.609 152.246C358.775 175.628 296.174 187.29 293.531 187.769C291.559 188.133 289.682 186.831 289.318 184.858C288.954 182.886 290.257 181.009 292.229 180.645C292.842 180.53 353.547 169.232 378.595 147.899C378.883 140.468 380.319 126.451 387.06 124.019C393.896 121.548 398.875 127.983 401.575 132.923C407.378 127.657 417.968 119.403 426.087 120.782C431.239 121.663 435.586 124.689 438.612 129.553C444.433 138.879 445.123 154.601 440.431 170.611C433.843 193.016 385.355 232.388 317.239 232.388Z" fill="#371A45"/>
<path d="M370.399 315.078C370.399 315.078 280.643 349.778 249.161 347.308C217.678 344.818 183.763 339.839 181.906 280.11C180.757 242.978 199.122 206.459 213.197 184.13C221.757 170.534 228.728 162.204 228.728 162.204L315.381 166.627C315.381 166.627 315.726 171.204 316.415 178.768C316.856 183.498 317.43 189.397 318.158 196.099C319.211 205.712 320.571 216.934 322.275 228.673C324.88 246.655 328.308 265.824 332.616 282.121C334.474 289.168 364.061 291.102 370.399 315.078Z" fill="white"/>
<path d="M320.341 204.506C323.578 215.077 325.435 225.763 327.312 236.448C329.208 247.115 330.912 257.8 333.114 268.371C333.67 271.014 334.263 273.638 334.895 276.261L335.853 280.187L336.102 281.163L336.121 281.221V281.202V281.183C336.121 281.163 336.121 281.144 336.102 281.144C336.102 281.125 336.083 281.125 336.063 281.106C336.083 281.106 336.083 281.106 336.083 281.125C336.102 281.144 336.083 281.144 336.102 281.183C336.159 281.221 336.197 281.278 336.236 281.317C336.274 281.412 336.504 281.546 336.638 281.681C337.308 282.236 338.4 282.83 339.491 283.404C340.602 283.979 341.808 284.534 343.034 285.089C345.485 286.2 348.032 287.349 350.56 288.613C355.596 291.16 360.652 294.262 364.884 298.571C366.991 300.716 368.867 303.129 370.399 305.771C371.931 308.414 373.08 311.267 373.866 314.197L374.708 317.357L371.663 318.506C357.397 323.945 343.072 328.981 328.576 333.711C314.098 338.422 299.487 342.807 284.569 346.331C277.101 348.074 269.575 349.625 261.781 350.506C257.893 350.946 253.948 351.233 249.812 351.004C248.759 350.984 247.839 350.869 246.882 350.812L244.029 350.563C242.114 350.391 240.199 350.199 238.284 349.969C230.624 349.069 222.81 347.71 215.284 344.933C211.531 343.554 207.835 341.792 204.407 339.59C200.96 337.388 197.781 334.745 194.985 331.758C192.189 328.751 189.834 325.381 187.862 321.838C185.908 318.295 184.281 314.58 183.074 310.789L182.595 309.371L182.193 307.935L181.408 305.063L180.757 302.171L180.431 300.735L180.182 299.279L179.685 296.369C179.531 295.392 179.416 294.434 179.302 293.458C179.014 291.524 178.861 289.57 178.689 287.636C178.038 279.919 178.057 272.01 178.899 264.254C179.704 256.498 181.217 248.838 183.246 241.351C187.306 226.375 193.415 212.109 200.615 198.531C204.216 191.733 207.816 184.916 212.182 178.577C216.548 172.257 221.393 166.206 227.77 161.457C228.326 161.055 229.092 161.15 229.513 161.706C229.8 162.089 229.819 162.568 229.647 162.951L229.628 162.989C226.449 170.017 222.561 176.394 218.616 182.752C214.729 189.129 210.554 195.333 207.031 201.94C200.003 215.115 194.124 228.922 190.236 243.227C188.302 250.389 186.866 257.647 186.1 264.982C185.315 272.316 185.295 279.631 185.908 287.023C186.061 288.862 186.215 290.7 186.483 292.519C186.598 293.419 186.713 294.339 186.847 295.239L187.325 297.939L187.555 299.279L187.862 300.601L188.455 303.263L189.183 305.867L189.547 307.169L189.987 308.452C191.079 311.88 192.515 315.155 194.219 318.238C195.924 321.321 197.954 324.213 200.328 326.76C205.058 331.873 211.129 335.626 217.831 338.077C224.534 340.548 231.792 341.85 239.164 342.712C241.003 342.941 242.86 343.114 244.737 343.286L247.533 343.535C248.452 343.612 249.448 343.707 250.271 343.727C251.152 343.746 251.995 343.841 252.895 343.803L255.576 343.746C257.395 343.612 259.195 343.516 261.015 343.267C268.311 342.443 275.664 340.931 282.941 339.245C297.534 335.798 312.011 331.451 326.354 326.798C340.698 322.106 354.984 317.089 369.059 311.727L366.857 316.036C365.612 311.344 363.161 307.131 359.714 303.665C356.286 300.16 351.958 297.441 347.285 295.086C344.949 293.898 342.517 292.826 340.028 291.677C338.783 291.102 337.5 290.528 336.198 289.858C334.876 289.168 333.555 288.479 332.099 287.33C331.716 287.004 331.372 286.755 330.989 286.315L330.433 285.702C330.242 285.453 330.069 285.185 329.897 284.917C329.552 284.457 329.246 283.557 329.074 283.021L328.806 282.025L327.771 278.023C327.101 275.342 326.45 272.68 325.857 269.999C324.631 264.637 323.463 259.275 322.429 253.875C321.395 248.494 320.533 243.074 319.767 237.655C318.273 226.797 317.239 215.881 317.909 204.832C317.948 204.161 318.541 203.644 319.211 203.683C319.767 203.663 320.188 204.027 320.341 204.506Z" fill="#371A45"/>
<path d="M190.619 497.558L175.088 499.971C168.06 501.063 160.994 498.21 156.704 492.541C143.912 475.67 136.003 455.601 133.801 434.555C133.054 427.489 136.271 420.576 142.15 416.573L155.134 407.726" fill="#00AAFF"/>
<g opacity="0.6">
<g opacity="0.6">
<path opacity="0.6" d="M157.873 416.611L145.004 425.382C141.767 427.584 139.259 430.61 137.65 434.057C136.061 437.504 135.371 441.372 135.793 445.279C136.099 448.305 136.539 451.292 137.057 454.28C135.505 448.458 134.414 442.502 133.782 436.47C133.418 432.946 134.031 429.442 135.467 426.32C136.903 423.218 139.182 420.499 142.112 418.488L155.096 409.641L157.873 416.611Z" fill="white"/>
</g>
</g>
<g opacity="0.35">
<path opacity="0.35" d="M143.568 466.861C146.727 473.181 150.481 479.213 154.77 484.881C159.06 490.55 166.126 493.403 173.154 492.311L187.632 490.052L155.096 407.707L152.319 409.603L176.429 470.653L160.898 473.066C154.445 474.081 147.915 471.706 143.568 466.861ZM173.499 463.146L152.338 409.603L153.219 409.009L174.552 462.993L173.499 463.146Z" fill="#371A45"/>
</g>
<path d="M193.358 383.846C185.276 368.028 157.624 347.097 103.199 381.624C102.491 382.084 102.702 383.176 103.525 383.329C112.583 384.937 155.172 392.195 162.986 414.352" fill="#EC1C24"/>
<g opacity="0.6">
<g opacity="0.6">
<path opacity="0.6" d="M112.353 384.076C108.446 383.233 105.325 382.697 103.525 382.371C102.682 382.218 102.472 381.126 103.199 380.667C157.624 346.14 185.295 367.07 193.358 382.888L190.064 386.182C179.627 372.72 155.096 360.425 112.353 384.076Z" fill="white"/>
</g>
</g>
<path d="M162.986 417.99C161.492 417.99 160.094 417.052 159.558 415.558C156.953 408.147 146.172 394.589 103.314 386.967L102.893 386.891C101.035 386.565 99.5992 385.148 99.2162 383.29C98.8523 381.433 99.6375 379.575 101.246 378.56C127.692 361.766 150.768 355.906 169.803 361.096C186.598 365.692 194.124 377.373 196.575 382.18C197.494 383.961 196.785 386.144 194.985 387.063C193.204 387.963 191.021 387.274 190.102 385.474C188.091 381.509 181.887 371.915 167.869 368.085C152.491 363.891 132.958 368.373 111.051 381.069C150.098 389.15 162.737 402.823 166.375 413.145C167.045 415.041 166.05 417.109 164.154 417.76C163.79 417.933 163.388 417.99 162.986 417.99Z" fill="#371A45"/>
<path d="M234.147 487.122C239.069 504.184 233.534 539.305 170.205 551.274C169.382 551.427 168.788 550.489 169.286 549.8C174.801 542.427 200.539 507.038 191.098 485.532" fill="#D25658"/>
<path d="M170.224 551.274C169.401 551.427 168.807 550.47 169.305 549.8C172.12 546.027 180.259 534.901 186.253 522.051C191.921 509.91 195.675 496.237 191.213 485.762C191.174 485.685 191.136 485.609 191.117 485.532H191.385L234.166 487.103C235.545 491.89 236.1 498.114 234.779 504.835C231.409 522.07 215.763 542.657 170.224 551.274Z" fill="#EC1C24"/>
<g opacity="0.35">
<path opacity="0.35" d="M186.234 522.051C191.902 509.91 195.656 496.237 191.194 485.762C191.251 485.685 191.309 485.609 191.347 485.532L234.128 487.103C235.507 491.89 236.062 498.114 234.741 504.835C224.553 513.51 209.08 520.309 186.234 522.051Z" fill="#371A45"/>
</g>
<path d="M170.033 554.913C168.482 554.913 167.026 554.128 166.184 552.768C165.188 551.159 165.265 549.149 166.394 547.636C173.499 538.137 196 505.716 187.785 487.007C186.981 485.168 187.804 483.043 189.642 482.219C191.481 481.415 193.607 482.239 194.43 484.077C202.799 503.112 186.962 530.86 176.295 546.295C200.635 540.646 217.812 530.554 226.181 516.938C234.262 503.801 231.658 491.565 230.681 488.118C230.126 486.203 231.236 484.192 233.17 483.636C235.085 483.081 237.096 484.192 237.652 486.126C239.184 491.45 241.75 505.506 232.366 520.749C221.987 537.62 201.305 549.091 170.914 554.855C170.607 554.894 170.32 554.913 170.033 554.913Z" fill="#371A45"/>
<path d="M489.991 326.951C489.991 326.951 475.763 417.473 358.507 473.391C258.621 521.017 189.547 497.559 189.547 497.559C175.51 481.913 165.322 463.395 159.539 443.498C156.187 431.931 154.311 419.924 154.062 407.707C154.062 407.707 169.401 378.982 211.033 349.95C212.469 348.955 213.925 347.94 215.437 346.944C231.696 336.086 251.688 325.304 275.971 316.112C281.697 313.929 287.671 311.861 293.895 309.888C294.144 309.812 294.393 309.735 294.623 309.659C319.709 301.75 342.67 297.767 363.333 296.445C364.003 296.407 364.654 296.369 365.305 296.33C445.046 291.887 489.991 326.951 489.991 326.951Z" fill="white"/>
<path d="M430.205 426.321C422.411 379.729 404.869 335.301 378.71 295.966C450.714 295.488 491.044 326.951 491.044 326.951C491.044 326.951 483.097 377.45 430.205 426.321Z" fill="#EC1C24"/>
<g opacity="0.6">
<g opacity="0.6">
<path opacity="0.6" d="M489.551 332.562C490.661 328.349 491.044 325.994 491.044 325.994C491.044 325.994 450.714 294.53 378.71 295.009C380.396 297.556 382.042 300.103 383.67 302.688C444.701 303.531 481.872 327.181 489.551 332.562Z" fill="white"/>
</g>
</g>
<path d="M427.734 433.54L426.624 426.914C418.868 380.533 401.729 337.139 375.685 297.977L371.97 292.385L378.672 292.347C435.758 291.945 473.445 311.478 487.004 319.866C492.117 323.025 494.491 329.058 492.921 334.86C488.765 350.257 474.556 390.261 432.637 428.982L427.734 433.54ZM385.432 299.643C408.757 336.258 424.613 376.377 432.599 419.044C469.386 383.099 482.101 347.154 485.95 332.964C486.678 330.283 485.567 327.487 483.212 326.032C470.707 318.295 436.85 300.754 385.432 299.643Z" fill="#371A45"/>
<path d="M236.981 506.961C207.375 506.961 190.179 501.235 189.451 500.986L188.551 500.68L187.919 499.971C176.582 487.332 167.677 472.932 161.454 457.133C155.211 441.353 151.879 424.75 151.515 407.783L151.496 406.826L151.936 405.983C152.3 405.313 161.071 389.131 183.036 368.679C203.181 349.931 238.762 323.906 293.876 306.403C322.773 297.23 351.307 292.481 378.691 292.309L380.644 292.29L381.736 293.917C408.278 333.845 425.781 378.063 433.728 425.344L434.456 427.297L432.675 428.944C412.568 447.539 388.477 463.567 361.111 476.628C308.909 501.523 265.151 506.846 237.632 506.923C237.422 506.961 237.192 506.961 236.981 506.961ZM192.649 494.38C196.479 495.509 212.756 499.837 238.015 499.703C264.71 499.588 307.204 494.341 358.009 470.117C384.072 457.688 407.033 442.521 426.317 424.98C418.523 379.958 401.863 337.809 376.795 299.605C350.732 299.988 323.597 304.603 296.078 313.336C199.486 344.014 163.139 401.215 158.792 408.607C159.232 424.367 162.411 439.783 168.194 454.452C173.978 469.159 182.212 482.564 192.649 494.38Z" fill="#371A45"/>
<path d="M172.101 503.821C164.977 503.821 158.198 500.508 153.813 494.724C140.618 477.317 132.461 456.635 130.182 434.919C129.301 426.512 133.092 418.316 140.082 413.567L153.066 404.719C154.713 403.589 156.973 404.011 158.102 405.677C159.232 407.324 158.811 409.583 157.145 410.713L144.161 419.561C139.374 422.816 136.788 428.408 137.382 434.172C139.508 454.567 147.187 474.004 159.577 490.358C163.062 494.973 168.788 497.29 174.514 496.39L190.045 493.978C192.017 493.671 193.875 495.031 194.181 497.003C194.487 498.976 193.128 500.833 191.155 501.14L175.625 503.553C174.457 503.744 173.269 503.821 172.101 503.821Z" fill="#371A45"/>
<g opacity="0.35">
<path opacity="0.35" d="M362.346 437.17C387.961 427.051 400.524 398.083 390.406 372.468C380.287 346.852 351.319 334.289 325.704 344.408C300.088 354.526 287.526 383.494 297.644 409.11C307.762 434.725 336.73 447.288 362.346 437.17Z" fill="#371A45"/>
</g>
<path d="M361.612 426.334C384.65 417.233 395.949 391.18 386.849 368.142C377.748 345.104 351.695 333.805 328.657 342.905C305.618 352.006 294.32 378.059 303.42 401.097C312.52 424.135 338.574 435.434 361.612 426.334Z" fill="#EC1C24"/>
<g opacity="0.6">
<g opacity="0.6">
<path opacity="0.6" d="M389.224 377.411C388.917 376.435 388.573 375.477 388.19 374.52C379.093 351.482 353.03 340.184 329.993 349.28C309.675 357.304 298.491 378.503 302.379 399.185C295.236 376.875 306.534 352.555 328.614 343.841C351.651 334.745 377.715 346.044 386.811 369.081C387.922 371.82 388.707 374.616 389.224 377.411Z" fill="white"/>
</g>
</g>
<g opacity="0.35">
<path opacity="0.35" d="M361.59 426.301C338.553 435.398 312.509 424.118 303.394 401.081C300.54 393.842 299.698 386.297 300.598 379.077C301.096 382.352 301.976 385.627 303.24 388.844C312.337 411.881 338.4 423.18 361.437 414.084C377.236 407.841 387.5 393.631 389.454 377.89C392.556 398.074 381.411 418.469 361.59 426.301Z" fill="#371A45"/>
</g>
<path d="M345.102 433.1C338.553 433.1 332.023 431.759 325.837 429.078C313.964 423.927 304.791 414.467 300.042 402.421C295.293 390.376 295.504 377.201 300.655 365.328C305.806 353.455 315.266 344.282 327.312 339.533C339.357 334.783 352.532 334.994 364.405 340.145C376.278 345.297 385.451 354.757 390.2 366.802C394.95 378.848 394.739 392.023 389.588 403.896C384.436 415.769 374.976 424.942 362.931 429.691C357.148 431.951 351.134 433.1 345.102 433.1ZM345.121 343.344C340.008 343.344 334.876 344.32 329.974 346.254C319.728 350.295 311.685 358.089 307.3 368.2C302.915 378.311 302.742 389.514 306.783 399.74C310.824 409.986 318.618 418.029 328.729 422.414C338.84 426.799 350.043 426.972 360.269 422.931C370.514 418.89 378.557 411.096 382.943 400.985C387.328 390.874 387.5 379.671 383.46 369.445C379.419 359.2 371.625 351.157 361.514 346.771C356.247 344.493 350.694 343.344 345.121 343.344Z" fill="#371A45"/>
<path d="M355.907 410.473C370.564 404.684 377.752 388.108 371.963 373.451C366.173 358.794 349.597 351.606 334.94 357.395C320.283 363.185 313.095 379.761 318.885 394.418C324.674 409.075 341.25 416.263 355.907 410.473Z" fill="#6BD6F0"/>
<g opacity="0.3">
<g opacity="0.3">
<path opacity="0.3" d="M355.903 410.445C341.253 416.228 324.669 409.047 318.886 394.378C317.622 391.199 316.99 387.944 316.894 384.708C316.99 385.014 317.105 385.301 317.22 385.608C323.003 400.257 339.587 407.458 354.237 401.674C365.727 397.136 372.621 385.991 372.276 374.328C377.446 388.748 370.246 404.758 355.903 410.445Z" fill="white"/>
</g>
</g>
<g opacity="0.35">
<path opacity="0.35" d="M374.248 385.378C374.095 384.918 373.923 384.459 373.731 383.999C367.948 369.349 351.364 362.149 336.714 367.932C325.684 372.279 318.886 382.754 318.675 393.919C313.849 379.614 321.05 363.892 335.24 358.281C349.89 352.497 366.473 359.678 372.257 374.328C373.693 377.948 374.344 381.701 374.248 385.378Z" fill="#371A45"/>
</g>
<path d="M345.409 416.075C341.062 416.075 336.734 415.175 332.616 413.394C324.727 409.985 318.656 403.704 315.496 395.7C308.985 379.212 317.105 360.483 333.593 353.972C350.081 347.461 368.81 355.58 375.321 372.069C381.832 388.557 373.712 407.285 357.224 413.796C353.394 415.309 349.411 416.075 345.409 416.075ZM345.389 358.989C342.345 358.989 339.261 359.544 336.274 360.732C323.501 365.787 317.22 380.284 322.256 393.057C324.707 399.242 329.399 404.106 335.508 406.749C341.617 409.392 348.377 409.507 354.562 407.056C367.335 402 373.617 387.503 368.58 374.73C364.712 364.964 355.309 358.989 345.389 358.989Z" fill="#371A45"/>
<g opacity="0.2">
<path opacity="0.2" d="M438.535 322.719C438.324 315.902 424.172 310.578 416.168 310.635C407.876 310.693 402.878 312.129 402.859 316.151C402.801 321.762 409.274 323.734 416.953 324.021C422.353 324.213 438.803 331.126 438.535 322.719Z" fill="white"/>
</g>
<g opacity="0.2">
<path opacity="0.2" d="M459.313 331.336C458.872 325.438 451.729 319.923 447.842 319.483C443.82 319.023 441.465 319.942 441.656 323.408C441.905 328.253 445.142 330.36 448.895 331.088C451.538 331.605 459.868 338.613 459.313 331.336Z" fill="white"/>
</g>
<g opacity="0.35">
<path opacity="0.35" d="M188.704 490.856C188.704 490.856 257.759 514.334 357.645 466.689C459.083 418.316 483.403 344.052 488.133 324.883C488.612 325.208 489.033 325.496 489.397 325.745C487.923 324.73 485.491 323.102 482.101 321.13C468.332 352.421 435.548 402.785 360.039 438.806C312.873 461.288 272.581 467.933 243.186 468.68C205.652 469.638 171.89 445.547 161.262 409.526C161.205 409.334 161.147 409.124 161.09 408.932C160.668 407.496 160.285 406.06 159.922 404.624C159.73 404.03 159.539 403.436 159.347 402.823C159.29 402.632 159.232 402.421 159.175 402.23C159.117 402.019 159.06 401.808 159.002 401.598C159.041 401.54 159.098 401.464 159.136 401.406C156.398 405.409 155.153 407.726 155.153 407.726C155.383 418.507 156.877 429.135 159.519 439.438C165.398 458.32 175.28 475.9 188.704 490.856Z" fill="#371A45"/>
</g>
<path d="M183.802 466.229C163.235 474.349 136.559 466.076 136.559 466.076C136.559 466.076 136.616 465.98 136.712 465.827C138.263 463.203 151.63 441.315 170.933 433.674C189.47 426.359 209.635 433.866 213.235 435.34C213.599 435.493 213.791 435.57 213.791 435.57C213.791 435.57 204.216 458.167 183.802 466.229Z" fill="#EC1C24"/>
<g opacity="0.6">
<g opacity="0.6">
<path opacity="0.6" d="M214.748 436.527C214.748 436.527 214.154 437.906 212.986 440.089C206.111 437.715 189.087 433.138 173.269 439.4C157.739 445.547 146.057 460.886 141.27 468.029C138.895 467.474 137.497 467.033 137.497 467.033C137.497 467.033 137.554 466.938 137.65 466.765C139.201 464.142 152.568 442.253 171.871 434.612C190.389 427.278 210.573 434.804 214.174 436.259C214.557 436.432 214.748 436.527 214.748 436.527Z" fill="white"/>
</g>
</g>
<g opacity="0.35">
<path opacity="0.35" d="M183.802 466.229C163.235 474.349 136.559 466.076 136.559 466.076C136.559 466.076 136.616 465.98 136.712 465.827L213.235 435.34C213.599 435.493 213.791 435.57 213.791 435.57C213.791 435.57 204.216 458.167 183.802 466.229Z" fill="#371A45"/>
</g>
<path d="M162.622 473.449C148.317 473.449 136.233 469.772 135.486 469.542L131.178 468.202L133.399 464.276C133.993 463.242 148.087 438.787 169.592 430.285C191.174 421.744 214.288 431.797 215.246 432.238L218.501 433.693L217.123 436.968C216.701 437.945 206.724 461.078 185.123 469.599C177.846 472.472 169.937 473.449 162.622 473.449ZM142.304 463.797C150.576 465.655 168.29 468.47 182.461 462.859C196.651 457.267 205.307 443.862 208.754 437.562C201.918 435.302 186.406 431.453 172.273 437.045C158.045 442.655 147.072 456.788 142.304 463.797Z" fill="#371A45"/>
<g opacity="0.25">
<path opacity="0.25" d="M285.967 392.272C288.82 396.37 308.545 429.653 292.669 442.866C278.767 454.452 253.125 452.556 239.624 434.344C230.7 422.299 228.881 408.415 229.398 397.787C229.992 385.378 232.213 373.543 226.027 364.255C222.734 359.295 217.295 354.872 211.052 349.969C212.488 348.974 213.944 347.959 215.457 346.963C231.715 336.105 251.708 325.323 275.99 316.131C280.739 318.41 285.278 321.359 289.088 325.132C304.14 340.069 304.562 370.019 294.335 382.18C290.314 386.948 285.967 392.272 285.967 392.272Z" fill="#371A45"/>
</g>
<path d="M295.044 383.195C297.897 387.293 317.622 420.575 301.746 433.789C287.844 445.375 262.202 443.479 248.701 425.267C239.777 413.222 237.958 399.338 238.475 388.71C239.069 376.301 241.29 364.466 235.105 355.178C228.057 344.588 200.577 340.643 186.904 324.96C178.842 315.729 174.533 298.973 175.261 278.444C175.491 272.201 176.18 265.614 177.367 258.777C182.442 229.746 196.632 196.367 222.772 166.8C222.772 166.8 233.151 208.355 244.048 245.276C251.631 271.014 259.463 294.492 264.174 300.045C264.806 300.792 265.362 301.214 265.879 301.271C272.064 302.133 278.135 303.856 283.899 306.499C289.05 308.854 294.029 311.957 298.146 316.036C313.198 330.973 313.619 360.923 303.393 373.083C299.372 377.871 295.044 383.195 295.044 383.195Z" fill="white"/>
<g opacity="0.25">
<path opacity="0.25" d="M306.821 426.206C305.883 429.116 304.274 431.702 301.746 433.789C287.844 445.375 262.202 443.479 248.701 425.267C239.777 413.222 237.958 399.338 238.475 388.71C239.069 376.301 241.29 364.466 235.104 355.178C228.057 344.588 200.577 340.624 186.904 324.96C178.861 315.729 174.533 298.954 175.28 278.425C175.28 278.329 175.28 278.234 175.28 278.138C175.299 277.448 175.337 276.759 175.376 276.07C175.414 275.438 175.452 274.787 175.491 274.135C175.51 273.848 175.529 273.542 175.548 273.255C175.663 271.723 175.797 270.171 175.969 268.601C176.046 267.854 176.142 267.107 176.237 266.341C176.295 265.824 176.371 265.288 176.448 264.752C176.505 264.311 176.563 263.871 176.62 263.411C176.716 262.722 176.831 262.013 176.946 261.305C177.08 260.501 177.214 259.696 177.348 258.892C177.348 258.854 177.367 258.796 177.367 258.758C178.172 257.858 178.746 257.341 178.746 257.341C178.746 257.341 181.484 258.586 187.325 260.098C196.613 262.511 213.752 265.633 240.237 265.595L239.815 251.864C239.72 248.934 241.481 246.349 244.048 245.257C244.66 244.989 245.311 244.817 246.02 244.74L262.47 242.978L286.254 300.562L264.174 300.026L247.571 299.624C244.009 299.394 241.175 296.483 241.079 292.902L240.869 286.008C226.334 289.264 202.281 290.107 186.732 284.993C187.9 299.337 191.883 310.923 198.088 318.027C211.761 333.692 232.251 325.285 246.116 341.467C254.791 351.578 250.252 369.368 249.658 381.778C249.141 392.406 245.043 407.975 253.967 420.02C265.744 435.953 291.271 434.536 306.821 426.206Z" fill="#371A45"/>
</g>
<g opacity="0.25">
<path opacity="0.25" d="M352.398 166.876C343.494 179.113 331.755 189.186 318.158 196.099C311.647 199.412 304.696 201.997 297.419 203.759C289.931 205.578 282.099 206.517 274.037 206.459C259.712 206.364 246.135 203.127 233.975 197.421C221.834 191.714 207.337 197.152 201.803 209.37C193.856 226.95 189.183 244.338 187.306 260.118C181.465 258.605 178.727 257.36 178.727 257.36C178.727 257.36 178.153 257.877 177.348 258.777C182.423 229.746 196.613 196.367 222.753 166.8L223.021 169.576C226.487 164.827 228.709 162.185 228.709 162.185L315.362 166.608C315.362 166.608 315.707 171.185 316.396 178.749C327.178 175.934 340.2 171.951 352.398 166.876Z" fill="#371A45"/>
</g>
<path d="M267.621 300.333C272.332 300.275 277.062 301.041 281.62 302.42C286.178 303.818 290.62 305.771 294.699 308.491C296.729 309.85 298.702 311.382 300.521 313.087C302.359 314.829 304.006 316.783 305.462 318.812C308.353 322.93 310.364 327.507 311.762 332.198C313.102 336.909 313.868 341.735 314.022 346.58C314.213 351.425 313.849 356.308 312.758 361.096C311.647 365.883 309.904 370.709 306.572 374.941L297.859 385.493L298.012 381.127C298.74 382.199 299.314 383.137 299.889 384.133C300.464 385.11 301.019 386.086 301.555 387.082C302.627 389.055 303.642 391.065 304.6 393.115C306.496 397.193 308.162 401.426 309.426 405.849C310.67 410.273 311.571 414.907 311.456 419.81C311.398 422.261 311.092 424.769 310.287 427.24C309.502 429.71 308.219 432.123 306.477 434.172L305.826 434.938C305.596 435.187 305.347 435.398 305.117 435.628C304.638 436.068 304.14 436.585 303.642 436.911C302.647 437.619 301.689 438.404 300.655 439.055C299.602 439.649 298.549 440.281 297.457 440.836L294.125 442.273C289.586 443.939 284.799 444.686 280.05 444.647C275.3 444.609 270.57 443.805 266.07 442.273C261.551 440.779 257.357 438.385 253.623 435.455C252.684 434.728 251.727 434 250.903 433.138C250.061 432.295 249.161 431.51 248.395 430.61L246.116 427.872C245.369 426.953 244.756 425.976 244.067 425.018C241.52 421.112 239.471 416.861 237.977 412.475C236.522 408.071 235.545 403.513 235.105 398.936C234.856 396.638 234.76 394.359 234.76 392.061C234.741 390.912 234.798 389.763 234.836 388.633L235.028 385.32C235.315 380.916 235.698 376.645 235.698 372.509C235.698 368.392 235.315 364.428 233.975 360.981C233.822 360.54 233.649 360.119 233.439 359.717C233.228 359.315 233.075 358.874 232.826 358.491L232.117 357.323C231.868 356.978 231.677 356.691 231.389 356.366C230.317 355.121 228.843 353.953 227.196 352.88C223.864 350.755 219.976 348.955 216.069 347.174C208.218 343.612 199.926 340.107 192.362 334.726C188.608 332.007 185.046 328.866 182.174 324.883C179.34 320.957 177.367 316.649 175.874 312.301C174.399 307.935 173.384 303.454 172.676 298.992C172.044 294.511 171.68 290.011 171.565 285.53C171.393 276.548 172.197 267.624 173.671 258.854C176.716 241.293 182.519 224.345 190.389 208.451C194.411 200.561 198.509 192.652 203.584 185.356C208.678 178.117 214.48 171.262 221.853 166.072C222.408 165.67 223.193 165.804 223.576 166.378C223.844 166.781 223.864 167.259 223.653 167.661V167.681C219.536 175.57 214.633 182.503 209.98 189.684C205.307 196.808 200.615 203.97 196.862 211.668C189.259 226.969 183.706 243.285 180.795 260.06C179.397 268.448 178.631 276.931 178.784 285.377C178.88 289.59 179.225 293.783 179.819 297.92C180.47 302.037 181.389 306.097 182.691 309.965C184.012 313.833 185.717 317.51 187.996 320.67C190.217 323.772 193.243 326.492 196.536 328.866C203.201 333.615 211.052 337.005 219.019 340.605C223.002 342.424 227.081 344.263 231.102 346.829C233.094 348.131 235.105 349.644 236.886 351.712C237.326 352.21 237.747 352.823 238.13 353.359L239.107 354.987C239.432 355.523 239.681 356.117 239.969 356.672C240.256 357.227 240.486 357.821 240.696 358.415C241.596 360.751 242.171 363.164 242.477 365.538C242.784 367.913 242.918 370.269 242.899 372.547C242.879 377.124 242.477 381.529 242.209 385.818L242.018 389.016C241.979 390.051 241.941 391.085 241.96 392.1C241.96 394.149 242.056 396.217 242.267 398.247C242.65 402.326 243.531 406.347 244.794 410.196C247.437 417.837 251.803 425.038 258.046 429.825C261.149 432.238 264.615 434.249 268.387 435.493C272.141 436.757 276.086 437.447 280.03 437.466C283.975 437.485 287.92 436.872 291.559 435.532L294.221 434.383C295.063 433.942 295.887 433.444 296.729 432.985C297.534 432.468 298.261 431.874 299.046 431.319C299.468 431.051 299.697 430.744 300.023 430.457C300.176 430.304 300.349 430.17 300.483 430.017L300.885 429.538C303.068 427.01 304.102 423.506 304.14 419.676C304.236 415.865 303.489 411.843 302.378 407.898C301.229 403.953 299.717 400.047 297.955 396.236C297.074 394.34 296.116 392.444 295.121 390.606C294.623 389.687 294.106 388.767 293.569 387.867C293.052 386.987 292.478 386.067 291.98 385.34L290.429 383.061L292.152 380.973L300.808 370.479C303.125 367.549 304.677 363.623 305.557 359.564C307.319 351.387 306.745 342.501 304.236 334.496C302.972 330.494 301.249 326.664 298.951 323.274C297.821 321.57 296.538 320.019 295.121 318.564C293.684 317.089 292.114 315.729 290.41 314.485C287.039 311.976 283.305 309.774 279.399 307.859C275.492 305.944 271.375 304.316 267.104 302.784C266.472 302.554 266.128 301.846 266.357 301.214C266.645 300.658 267.123 300.333 267.621 300.333Z" fill="#371A45"/>
<path d="M238.781 367.626C237.441 367.626 236.273 366.63 236.081 365.27C231.849 333.979 250.386 319.195 258.544 314.274C272.083 306.135 288.38 305.369 298.204 312.435C299.429 313.316 299.698 315.002 298.836 316.227C297.955 317.453 296.27 317.721 295.044 316.859C287.059 311.133 272.907 312.014 261.359 318.946C254.121 323.293 237.69 336.45 241.482 364.543C241.673 366.036 240.639 367.396 239.145 367.607C239.03 367.607 238.915 367.626 238.781 367.626Z" fill="#371A45"/>
<path d="M300.023 382.735C299.64 383.099 299.372 383.31 299.066 383.578C298.759 383.846 298.453 384.076 298.146 384.305C297.534 384.784 296.883 385.205 296.231 385.627C294.929 386.469 293.57 387.178 292.152 387.829C289.337 389.093 286.293 389.993 283.152 390.357C280.031 390.701 276.775 390.567 273.788 389.533C270.8 388.537 268.138 386.776 266.281 384.42C269.249 384.937 271.911 385.339 274.515 385.205C275.798 385.186 277.062 385.052 278.307 384.88C279.552 384.707 280.758 384.459 281.965 384.076C284.358 383.367 286.676 382.371 288.916 381.165C290.046 380.59 291.137 379.92 292.229 379.269L293.838 378.235L295.312 377.239L295.542 377.086C297.208 375.975 299.449 376.416 300.578 378.062C301.536 379.575 301.287 381.548 300.023 382.735Z" fill="#371A45"/>
<path d="M369.423 123.731C368.35 123.808 367.412 122.984 367.354 121.912L363.754 65.6877C363.678 64.6153 364.501 63.6769 365.574 63.6195C376.872 62.8918 386.639 71.471 387.366 82.7886L388.592 101.958C389.32 113.256 380.74 123.004 369.423 123.731Z" fill="white"/>
<path d="M369.308 124.114C368.082 124.114 367.048 123.157 366.971 121.912L363.371 65.6877C363.295 64.4046 364.271 63.2748 365.554 63.1982C377.064 62.4705 387.022 71.222 387.749 82.7312L388.975 101.9C389.339 107.473 387.5 112.854 383.804 117.048C380.108 121.242 375.014 123.751 369.442 124.095C369.404 124.114 369.346 124.114 369.308 124.114ZM366.914 63.945C366.474 63.945 366.033 63.9642 365.593 63.9833C365.171 64.0025 364.788 64.194 364.52 64.5195C364.252 64.8259 364.099 65.2281 364.137 65.6494L367.737 121.874C367.795 122.736 368.542 123.406 369.404 123.329C374.766 122.985 379.687 120.572 383.23 116.531C386.773 112.49 388.554 107.32 388.209 101.958L386.983 82.7886C386.639 77.4266 384.226 72.5051 380.185 68.9623C376.489 65.7068 371.816 63.945 366.914 63.945Z" fill="#371A45"/>
<g opacity="0.35">
<path opacity="0.35" d="M388.017 92.9573L388.592 101.939C389.32 113.237 380.74 123.004 369.423 123.731C368.35 123.808 367.412 122.984 367.355 121.893L366.397 106.956C366.742 107.626 367.45 108.047 368.255 108.009L369.595 107.913C378.5 107.339 385.739 101.134 388.017 92.9573Z" fill="#371A45"/>
</g>
<path d="M369.289 127.351C366.378 127.351 363.907 125.072 363.716 122.123L360.116 65.8983C359.924 62.8343 362.26 60.1725 365.324 59.981C371.759 59.5597 377.964 61.6853 382.808 65.9558C387.653 70.2071 390.545 76.1053 390.947 82.5397L392.173 101.709C392.575 108.143 390.468 114.348 386.198 119.193C381.947 124.038 376.049 126.929 369.614 127.332C369.538 127.351 369.423 127.351 369.289 127.351ZM367.488 67.2005L370.859 119.921C379.323 118.542 385.528 110.901 384.972 102.168L383.747 82.9993C383.46 78.499 381.43 74.3818 378.04 71.3944C375.091 68.79 371.376 67.3346 367.488 67.2005Z" fill="#371A45"/>
<path d="M180.029 75.4733C181.102 75.3967 182.04 76.2202 182.097 77.2926L185.698 133.517C185.774 134.589 184.951 135.528 183.878 135.585C172.58 136.313 162.813 127.734 162.086 116.416L160.86 97.2469C160.132 85.9484 168.712 76.1819 180.029 75.4733Z" fill="white"/>
<path d="M182.538 136.026C177.463 136.026 172.599 134.206 168.75 130.817C164.556 127.121 162.047 122.027 161.703 116.454L160.477 97.2852C160.113 91.7126 161.952 86.3314 165.647 82.1376C169.343 77.9437 174.437 75.4351 180.01 75.0904C181.312 75.0329 182.423 75.9904 182.499 77.2735L186.1 133.498C186.138 134.13 185.927 134.723 185.525 135.202C185.104 135.681 184.548 135.949 183.917 135.987C183.438 136.007 182.978 136.026 182.538 136.026ZM180.048 75.8564C174.686 76.2011 169.765 78.614 166.222 82.6546C162.679 86.6953 160.898 91.8658 161.243 97.2278L162.469 116.397C162.813 121.759 165.226 126.68 169.267 130.223C173.307 133.766 178.478 135.547 183.84 135.202C184.261 135.183 184.644 134.992 184.912 134.666C185.18 134.36 185.334 133.957 185.295 133.536L181.695 77.3118C181.657 76.45 180.91 75.7989 180.048 75.8564Z" fill="#371A45"/>
<g opacity="0.35">
<path opacity="0.35" d="M184.702 117.91L185.698 133.498C185.774 134.57 184.951 135.509 183.859 135.566C177.923 135.949 172.407 133.766 168.405 129.955C164.786 126.527 162.411 121.759 162.066 116.397L161.549 108.316C165.207 115.19 172.676 119.672 180.967 119.155L183.017 119.02C183.783 119.001 184.395 118.542 184.702 117.91Z" fill="#371A45"/>
</g>
<path d="M182.538 139.262C169.918 139.262 159.27 129.419 158.466 116.665L157.241 97.4959C156.838 91.0615 158.945 84.8569 163.215 80.0119C167.467 75.167 173.365 72.2753 179.799 71.8732C182.882 71.6817 185.525 74.018 185.717 77.082L189.317 133.306C189.413 134.8 188.915 136.236 187.938 137.347C186.961 138.458 185.583 139.128 184.108 139.224C183.572 139.243 183.055 139.262 182.538 139.262ZM178.593 79.2842C170.129 80.663 163.924 88.3039 164.479 97.0363L165.705 116.205C165.992 120.706 168.022 124.823 171.412 127.81C174.38 130.415 178.076 131.889 181.982 132.004L178.593 79.2842Z" fill="#371A45"/>
<path d="M370.747 100.264C371.126 47.2454 328.453 3.95788 275.434 3.57875C222.416 3.19962 179.128 45.8725 178.749 98.8912C178.37 151.91 221.043 195.197 274.061 195.577C327.08 195.956 370.368 153.283 370.747 100.264Z" fill="white"/>
<path d="M274.746 195.985C274.516 195.985 274.286 195.985 274.037 195.985C220.896 195.602 177.962 152.055 178.345 98.9138C178.728 46.0024 221.892 3.22131 274.708 3.22131C274.937 3.22131 275.167 3.22131 275.416 3.22131C301.154 3.41281 325.283 13.6006 343.36 31.9463C361.438 50.292 371.281 74.5551 371.109 100.293C370.745 153.185 327.562 195.985 274.746 195.985ZM274.727 3.98731C249.449 3.98731 225.645 13.7347 207.625 31.5059C189.433 49.4303 179.321 73.3678 179.149 98.9138C178.958 124.441 188.743 148.532 206.668 166.724C224.592 184.917 248.529 195.028 274.076 195.2C299.583 195.372 323.693 185.606 341.886 167.682C360.078 149.757 370.19 125.82 370.362 100.274C370.553 74.7466 360.768 50.6559 342.843 32.4634C324.919 14.2709 300.981 4.15966 275.435 3.98731C275.186 3.98731 274.957 3.98731 274.727 3.98731Z" fill="#371A45"/>
<g opacity="0.35">
<path opacity="0.35" d="M369.901 86.9825C370.476 91.3295 370.763 95.7723 370.725 100.273C370.342 153.28 327.063 195.946 274.036 195.582C221.029 195.199 178.363 151.92 178.727 98.8938C178.746 97.3618 178.784 95.8489 178.861 94.3361C184.989 141.1 224.84 177.37 273.347 177.715C324.841 178.098 367.144 137.864 369.901 86.9825Z" fill="#371A45"/>
</g>
<path d="M274.764 199.221C274.515 199.221 274.285 199.221 274.037 199.221C247.437 199.029 222.485 188.497 203.813 169.538C185.142 150.58 174.954 125.493 175.146 98.8938C175.337 72.2944 185.87 47.342 204.828 28.6707C223.787 9.9995 248.893 -0.207453 275.473 0.00319662C302.072 0.194697 327.025 10.7272 345.696 29.6857C364.367 48.6442 374.555 73.7307 374.363 100.33C374.172 126.929 363.639 151.882 344.681 170.553C325.895 189.052 301.095 199.221 274.764 199.221ZM274.726 7.22275C250.31 7.22275 227.311 16.6445 209.903 33.8029C192.323 51.1337 182.557 74.2669 182.365 98.9321C182.174 123.597 191.634 146.865 208.946 164.444C226.257 182.024 249.39 191.79 274.056 191.963C298.759 192.116 321.988 182.694 339.568 165.383C357.148 148.071 366.914 124.938 367.086 100.273C367.259 75.6074 357.818 52.3401 340.506 34.7604C323.195 17.1807 300.061 7.41424 275.396 7.24189C275.166 7.22274 274.937 7.22275 274.726 7.22275Z" fill="#371A45"/>
<path d="M370.399 102.743C370.552 121.529 364.597 139.013 354.275 153.529C346.538 164.406 314.558 183.594 274.879 184.264C238.092 184.896 204.445 165.536 196.536 154.774C185.985 140.43 179.761 123.042 179.608 104.256C179.206 54.5424 221.757 33.6115 274.439 33.1902C327.139 32.7689 370.016 53.0296 370.399 102.743Z" fill="#371A45"/>
<path d="M273.098 186.448C235.832 186.448 202.933 167.125 194.794 156.076C183.591 140.832 177.597 122.927 177.444 104.294C177.252 80.0311 186.827 61.2449 205.92 48.4527C222.6 37.2883 246.288 31.256 274.419 31.0262C302.57 30.7964 326.335 36.4457 343.206 47.3612C362.49 59.847 372.372 78.4608 372.563 102.743C372.716 121.376 366.991 139.377 356.037 154.793C348.434 165.478 316.856 185.739 274.917 186.448C274.305 186.448 273.692 186.448 273.098 186.448ZM275.894 35.3541C275.415 35.3541 274.937 35.3541 274.477 35.3541C246.441 35.5839 181.293 42.746 181.791 104.256C181.925 121.97 187.632 139.013 198.298 153.51C205.748 163.659 237.805 182.12 273.136 182.12C273.711 182.12 274.266 182.12 274.841 182.101C314.749 181.43 345.581 162.012 352.513 152.265C362.931 137.596 368.369 120.476 368.235 102.762C367.757 42.2673 304.638 35.3541 275.894 35.3541Z" fill="#371A45"/>
<g opacity="0.7">
<path opacity="0.7" d="M351.494 98.3361C353.094 89.0919 348.958 80.6581 342.257 79.4986C335.555 78.3391 328.826 84.893 327.227 94.1372C325.627 103.381 329.763 111.815 336.464 112.975C343.166 114.134 349.895 107.58 351.494 98.3361Z" fill="white"/>
</g>
<g opacity="0.7">
<path opacity="0.7" d="M330.921 132.034C332.234 127.935 330.448 123.698 326.933 122.573C323.417 121.447 319.503 123.858 318.19 127.957C316.877 132.057 318.663 136.293 322.178 137.419C325.694 138.545 329.608 136.134 330.921 132.034Z" fill="white"/>
</g>
<g opacity="0.35">
<path opacity="0.35" d="M351.479 56.5148C363.237 67.5452 370.246 82.7695 370.399 102.743C370.552 121.529 364.578 139.013 354.275 153.529C346.538 164.406 314.558 183.594 274.86 184.264C260.842 184.513 247.303 181.852 235.449 177.868C284.205 175.992 323.175 152.456 332.77 138.956C345.868 120.533 353.413 98.3384 353.222 74.4967C353.183 68.1389 352.59 62.1449 351.479 56.5148Z" fill="#111A28"/>
</g>
<path d="M189.336 64.0409L183.649 59.5406L186.33 61.6854L183.476 59.7896C200.328 34.5499 233.266 19.9001 273.826 19.5746C314.137 19.2682 347.209 32.903 364.75 57.0128C365.765 58.3533 365.746 60.2492 364.616 61.5705C363.314 63.0834 361.035 63.2749 359.503 61.9727C359.292 61.7812 359.082 61.5705 358.909 61.3407C342.785 39.1076 311.781 26.5069 273.864 26.8324C235.737 27.1388 204.982 40.6204 189.489 63.8302C189.432 63.9068 189.394 63.9834 189.336 64.0409Z" fill="#371A45"/>
<g opacity="0.7">
<path opacity="0.7" d="M201.266 133.67C201.266 133.67 185.487 84.7611 211.761 64.9983C238.034 45.2546 276.047 45.0248 275.185 47.476C275.185 47.476 233.17 58.0085 216.969 91.4061C204.465 117.163 201.266 133.67 201.266 133.67Z" fill="white"/>
</g>
<path d="M335.316 240.278L337.921 260.328L339.951 275.916C340.506 280.149 337.691 284.093 333.497 284.936C330.797 285.491 327.446 286.123 323.597 286.794C309.885 289.168 289.682 291.811 269.402 291.505C265.036 291.428 261.512 287.923 261.397 283.557L260.344 242.174C260.229 237.521 264.04 233.71 268.694 233.825C282.788 234.189 310.881 234.648 326.527 233.212C330.855 232.81 334.742 235.95 335.316 240.278Z" fill="white"/>
<path d="M268.043 233.844L251.593 235.606C247.992 235.989 245.292 239.091 245.388 242.71L246.633 283.768C246.748 287.349 249.563 290.26 253.125 290.47L268.33 291.428" fill="white"/>
<g opacity="0.25">
<path opacity="0.25" d="M268.043 233.844L251.593 235.606C247.992 235.989 245.292 239.091 245.388 242.71L246.633 283.768C246.748 287.349 249.563 290.26 253.125 290.47L268.33 291.428" fill="#371A45"/>
</g>
<path d="M272.715 294.741C271.585 294.741 270.456 294.741 269.326 294.722C263.236 294.626 258.334 289.762 258.18 283.653L257.127 242.27C257.051 239.129 258.219 236.18 260.44 233.959C262.661 231.737 265.611 230.569 268.751 230.646C283.65 231.029 310.9 231.45 326.201 230.052C332.291 229.497 337.672 233.825 338.476 239.895L343.091 275.533C343.857 281.412 339.912 286.928 334.11 288.115C321.662 290.624 297.591 294.741 272.715 294.741ZM268.464 237.023C267.143 237.023 265.917 237.54 264.979 238.478C264.002 239.455 263.504 240.738 263.523 242.097L264.576 283.481C264.653 286.142 266.779 288.268 269.421 288.306C294.853 288.689 320.073 284.4 332.846 281.795C335.374 281.278 337.097 278.865 336.753 276.319L332.138 240.68C331.793 238.038 329.457 236.142 326.814 236.391C311.187 237.827 283.631 237.406 268.598 237.023C268.56 237.023 268.502 237.023 268.464 237.023Z" fill="#371A45"/>
<path d="M268.349 294.626C268.272 294.626 268.215 294.626 268.138 294.626L252.933 293.668C247.686 293.343 243.588 289.13 243.435 283.864L242.19 242.806C242.037 237.54 246.001 232.982 251.248 232.408L267.698 230.646C269.46 230.454 271.03 231.737 271.221 233.48C271.413 235.242 270.13 236.812 268.387 237.004L251.937 238.765C250.003 238.976 248.548 240.661 248.605 242.595L249.85 283.653C249.907 285.587 251.42 287.138 253.354 287.272L268.56 288.23C270.321 288.345 271.662 289.858 271.547 291.619C271.451 293.324 270.034 294.626 268.349 294.626Z" fill="#371A45"/>
<path d="M303.049 293.228C301.364 293.228 299.946 291.907 299.851 290.221L298.625 269.252L288.016 262.09C287.193 261.535 286.676 260.635 286.618 259.658L284.875 234.399C284.761 232.637 286.082 231.105 287.844 230.991C289.605 230.876 291.137 232.197 291.252 233.959L292.88 257.647L303.508 264.829C304.332 265.384 304.849 266.303 304.906 267.299L306.228 289.858C306.323 291.619 304.983 293.132 303.221 293.247C303.183 293.209 303.125 293.228 303.049 293.228Z" fill="#371A45"/>
<path d="M332.923 259.428C333.057 260.692 332.329 271.129 332.329 271.129C332.329 271.129 329.074 271.474 325.09 271.876C320.111 272.393 315.535 267.663 314.864 261.286C314.194 254.928 317.699 249.336 322.678 248.819C326.048 248.474 329.916 248.072 329.916 248.072C329.916 248.072 332.693 257.36 332.923 259.428Z" fill="#22A7F0"/>
<path d="M332.904 259.428C333.038 260.692 332.329 271.129 332.329 271.129C332.329 271.129 332.252 271.129 332.08 271.148C332.272 268.141 332.463 264.56 332.386 263.852C332.176 261.784 329.399 252.515 329.399 252.515C329.399 252.515 325.531 252.917 322.16 253.262C318.675 253.626 315.918 256.46 314.788 260.309C314.558 254.354 317.947 249.317 322.677 248.838C326.029 248.494 329.916 248.091 329.916 248.091C329.916 248.091 332.693 257.36 332.904 259.428Z" fill="white"/>
<path d="M324.363 274.633C318.311 274.633 312.949 269.003 312.164 261.573C311.341 253.722 315.937 246.808 322.409 246.119L327.465 245.602C330.05 245.334 332.444 246.942 333.172 249.432C335.431 257.226 335.585 258.662 335.623 259.122C335.661 259.505 335.757 260.386 335.182 269.061C335.01 271.665 332.999 273.772 330.395 274.04L325.378 274.557C325.033 274.633 324.688 274.633 324.363 274.633ZM327.963 251.021L322.984 251.538C319.556 251.902 317.086 256.23 317.584 261.018C318.081 265.805 321.394 269.52 324.822 269.176L329.782 268.658C330.165 262.856 330.261 260.213 330.223 259.677C330.127 258.988 329.495 256.345 327.963 251.021Z" fill="#371A45"/>
<path d="M332.324 271.109C337.311 270.59 340.816 265.011 340.153 258.646C339.491 252.282 334.912 247.544 329.926 248.063C324.94 248.582 321.435 254.161 322.097 260.525C322.759 266.89 327.338 271.628 332.324 271.109Z" fill="#22A7F0"/>
<path d="M340.142 258.681C340.219 259.447 340.238 260.213 340.2 260.941C338.821 255.751 334.78 252.151 330.395 252.611C326.01 253.07 322.773 257.437 322.505 262.799C322.314 262.071 322.161 261.324 322.084 260.539C321.414 254.181 324.937 248.589 329.916 248.091C334.914 247.574 339.491 252.304 340.142 258.681Z" fill="white"/>
<path d="M331.563 273.887C328.671 273.887 325.895 272.642 323.635 270.305C321.28 267.873 319.786 264.503 319.403 260.826C319.02 257.149 319.805 253.549 321.605 250.677C323.539 247.594 326.393 245.717 329.648 245.372C332.904 245.027 336.083 246.291 338.61 248.896C340.966 251.328 342.46 254.698 342.843 258.375C343.226 262.052 342.44 265.652 340.64 268.525C338.706 271.608 335.853 273.484 332.597 273.829C332.253 273.867 331.908 273.887 331.563 273.887ZM330.663 250.772C330.51 250.772 330.357 250.772 330.203 250.792C328.652 250.945 327.216 251.941 326.201 253.568C325.052 255.407 324.554 257.781 324.803 260.271C325.052 262.741 326.029 264.963 327.542 266.533C328.882 267.912 330.472 268.601 332.042 268.429C333.593 268.276 335.029 267.28 336.044 265.652C337.193 263.814 337.691 261.439 337.442 258.95C337.193 256.479 336.217 254.258 334.704 252.687C333.497 251.443 332.08 250.772 330.663 250.772Z" fill="#371A45"/>
<path d="M178.746 248.302C178.746 248.302 200.386 258.107 251.88 256.326C251.88 256.326 261.321 265.365 251.88 272.833C242.439 280.302 189.374 284.591 175.184 269.29C166.203 259.62 178.746 248.302 178.746 248.302Z" fill="white"/>
<g opacity="0.25">
<path opacity="0.25" d="M251.861 272.833C242.439 280.302 189.355 284.591 175.165 269.29C170.895 264.695 171.488 259.716 173.308 255.771C173.786 256.613 174.399 257.475 175.165 258.298C189.355 273.599 242.439 269.31 251.861 261.841C252.857 261.037 253.661 260.233 254.255 259.428C256.227 262.722 257.855 268.084 251.861 272.833Z" fill="#371A45"/>
</g>
<path d="M214.499 282.81C202.473 282.81 181.906 281.278 172.829 271.474C169.956 268.371 168.577 264.809 168.75 260.884C169.114 252.764 176.295 246.196 176.601 245.928L178.152 244.53L180.048 245.391C180.374 245.545 201.994 254.851 251.746 253.147L253.086 253.109L254.063 254.047C254.618 254.583 259.521 259.467 259.234 265.824C259.119 268.333 258.085 272.029 253.833 275.38C247.514 280.378 229.417 282.753 215.303 282.849C215.054 282.81 214.767 282.81 214.499 282.81ZM179.57 252.056C177.923 253.932 175.318 257.456 175.146 261.19C175.05 263.354 175.835 265.288 177.52 267.107C190.504 281.125 241.922 276.606 249.869 270.305C251.784 268.793 252.761 267.203 252.837 265.461C252.952 263.201 251.535 260.884 250.463 259.543C208.199 260.865 186.176 254.43 179.57 252.056Z" fill="#371A45"/>
<g opacity="0.25">
<path opacity="0.25" d="M364.061 324.308C356.305 333.673 331.448 342.712 318.082 334.324C306.898 327.334 306.553 317.3 298.625 311.535C298.166 311.191 296.768 310.597 294.642 309.659C319.729 301.75 342.689 297.767 363.352 296.445C372.257 307.418 370.476 316.553 364.061 324.308Z" fill="#371A45"/>
</g>
<path d="M256.055 205.827C284.09 240.795 330.338 262.243 357.971 287.177C373.119 300.831 370.725 307.418 363.18 316.553C355.443 325.917 337.251 334.956 323.865 326.568C312.681 319.559 311.992 312.914 304.064 307.15C300.942 304.871 250.674 291.543 222.772 248.053" fill="white"/>
<g opacity="0.25">
<path opacity="0.25" d="M363.18 316.553C355.443 325.917 337.251 334.956 323.865 326.568C312.681 319.578 311.992 312.914 304.064 307.15C300.942 304.871 250.674 291.543 222.791 248.053L223.366 247.325C254.484 280.034 286.924 282.006 308.468 298.571C316.224 304.546 316.913 306.518 328.078 313.527C341.464 321.915 359.656 312.876 367.393 303.512C367.891 302.918 368.369 302.324 368.81 301.75C370.074 307.035 367.45 311.382 363.18 316.553Z" fill="#371A45"/>
</g>
<path d="M256.993 205.081C262.949 209.274 267.851 214.062 273.098 218.639C278.25 223.273 283.554 227.792 288.897 232.274C294.336 236.678 299.985 240.834 305.749 244.855C311.494 248.915 317.354 252.86 323.195 256.843C329.054 260.845 334.933 264.79 340.736 268.984C342.191 269.999 343.647 271.071 345.064 272.144C346.5 273.216 347.936 274.269 349.373 275.361C352.188 277.602 355.041 279.785 357.76 282.198C360.518 284.515 363.237 287.023 365.784 289.838C366.397 290.566 367.029 291.294 367.642 292.041C368.216 292.845 368.829 293.611 369.384 294.454L370.169 295.775L370.572 296.445C370.687 296.675 370.801 296.924 370.916 297.173L371.587 298.628C371.778 299.145 371.931 299.681 372.104 300.218C372.716 302.362 372.965 304.852 372.448 307.131C371.989 309.41 371.089 311.459 370.055 313.201C369.001 314.944 367.852 316.514 366.684 317.951C366.129 318.678 365.459 319.406 364.788 320.153C364.137 320.919 363.41 321.551 362.701 322.24C359.828 324.883 356.65 327.066 353.26 328.866C349.851 330.647 346.213 332.026 342.345 332.811C338.495 333.596 334.397 333.768 330.376 332.964L328.863 332.619C328.365 332.505 327.867 332.39 327.388 332.179C326.431 331.796 325.435 331.509 324.497 331.03C323.597 330.551 322.658 330.053 321.777 329.555C320.992 329.019 320.169 328.521 319.403 327.947C317.852 326.817 316.339 325.611 314.922 324.27C313.524 322.93 312.202 321.512 311.015 320.057C308.621 317.146 306.726 314.35 304.485 312.244C304.217 311.957 303.91 311.727 303.623 311.459C303.336 311.21 303.049 310.942 302.742 310.712L302.283 310.348L302.053 310.176L301.938 310.08C301.881 310.042 301.938 310.08 301.938 310.08C301.957 310.099 301.976 310.118 301.995 310.118L301.804 310.042C301.651 309.984 301.536 309.908 301.325 309.831C299.832 309.218 298.127 308.586 296.48 307.935C293.148 306.652 289.816 305.292 286.503 303.856C273.309 298.073 260.632 290.892 249.199 281.929C246.326 279.708 243.569 277.333 240.869 274.921C238.207 272.45 235.468 270.037 232.941 267.395C231.658 266.092 230.451 264.733 229.321 263.297C228.747 262.588 228.172 261.879 227.655 261.113C227.119 260.367 226.602 259.62 226.104 258.854C225.089 257.341 224.266 255.675 223.481 254.009C222.753 252.304 222.121 250.543 221.719 248.685C221.566 247.996 222.006 247.306 222.715 247.153C223.078 247.076 223.423 247.153 223.71 247.345L223.768 247.383C225.357 248.436 226.64 249.662 227.962 250.849C229.302 252.017 230.47 253.3 231.677 254.526C232.27 255.139 232.864 255.771 233.439 256.422C234.013 257.073 234.607 257.666 235.181 258.318C235.775 258.949 236.33 259.581 236.886 260.233C237.46 260.864 238.054 261.496 238.609 262.128C240.869 264.714 243.224 267.222 245.752 269.559C248.299 271.857 250.922 274.116 253.661 276.223C264.519 284.744 276.679 291.658 289.395 297.23C292.574 298.628 295.81 299.93 299.066 301.194C300.712 301.845 302.321 302.42 304.121 303.167C304.332 303.243 304.619 303.377 304.868 303.492C305.002 303.55 305.098 303.588 305.27 303.684C305.481 303.799 305.711 303.933 305.902 304.048C305.998 304.105 306.151 304.201 306.17 304.22L306.323 304.335L306.611 304.565L307.204 305.024C307.989 305.637 308.736 306.307 309.464 306.997C312.375 309.774 314.462 312.895 316.569 315.423C318.656 317.989 320.935 320.153 323.578 322.03C324.229 322.508 324.937 322.93 325.607 323.389L327.561 324.442C328.212 324.787 328.94 324.959 329.61 325.247C329.954 325.4 330.299 325.477 330.663 325.553L331.755 325.802C334.665 326.377 337.787 326.281 340.87 325.649C347.017 324.385 353.049 321.168 357.741 316.878C358.296 316.323 358.909 315.806 359.407 315.212C359.924 314.638 360.441 314.063 360.977 313.393C362.05 312.091 362.969 310.788 363.754 309.486C364.539 308.203 365.018 306.939 365.286 305.752C365.573 304.565 365.42 303.416 365.095 302.19C364.386 299.72 362.548 297.077 360.346 294.664C358.124 292.232 355.654 289.915 352.992 287.694C350.426 285.396 347.649 283.27 344.93 281.106C343.551 280.034 342.134 279.019 340.736 277.965C339.338 276.912 337.94 275.878 336.485 274.863C330.797 270.765 324.937 266.82 319.116 262.837C313.256 258.854 307.377 254.89 301.555 250.772C295.714 246.713 290.008 242.404 284.243 238.153C278.575 233.767 272.907 229.305 267.889 224.077C262.719 219.041 258.199 213.219 255.078 206.574C254.791 205.961 255.059 205.215 255.672 204.927C256.093 204.736 256.572 204.793 256.916 205.042L256.993 205.081Z" fill="#371A45"/>
<path d="M258.238 287.291C257.989 287.291 257.74 287.253 257.472 287.196C255.748 286.774 254.695 285.051 255.116 283.327C255.557 281.546 266.07 239.819 295.14 239.819C295.293 239.819 295.446 239.819 295.619 239.819C297.38 239.838 298.797 241.293 298.778 243.074C298.759 244.836 297.304 246.291 295.523 246.234C295.408 246.234 295.293 246.234 295.159 246.234C271.049 246.234 261.436 284.476 261.34 284.859C260.976 286.315 259.674 287.291 258.238 287.291Z" fill="#371A45"/>
<path d="M376.757 221.147C376.221 221.147 375.685 221.013 375.187 220.745C359.043 211.687 357.875 168.044 357.779 163.104C357.741 161.342 359.158 159.887 360.92 159.848C360.939 159.848 360.958 159.848 360.977 159.848C362.72 159.848 364.156 161.246 364.176 162.989C364.386 175.398 367.335 208.987 378.308 215.153C379.84 216.015 380.396 217.968 379.534 219.52C378.959 220.554 377.887 221.147 376.757 221.147Z" fill="#371A45"/>
<path d="M403.261 139.262C403.299 139.454 403.299 139.836 403.337 140.143L403.395 141.12C403.452 141.771 403.471 142.441 403.548 143.111C403.644 144.452 403.797 145.792 403.988 147.152C404.18 148.511 404.448 149.852 404.716 151.269C404.927 152.724 405.291 154.122 405.463 155.846C403.931 155.137 402.629 154.065 401.595 152.801C401.039 152.188 400.618 151.499 400.177 150.79C399.794 150.082 399.392 149.354 399.105 148.588C398.454 147.094 397.994 145.505 397.707 143.896C397.592 143.092 397.458 142.269 397.439 141.445C397.42 141.024 397.401 140.622 397.42 140.2C397.42 139.76 397.458 139.396 397.535 138.841C397.745 137.27 399.182 136.179 400.733 136.39C402.016 136.562 402.993 137.558 403.184 138.764L403.261 139.262Z" fill="#371A45"/>
</g>
</svg>
