<svg width="174" height="253" viewBox="0 0 174 253" fill="none" xmlns="http://www.w3.org/2000/svg">
<rect x="19.2168" y="195" width="135.667" height="47.6372" fill="#4452FE" stroke="white" stroke-width="20" stroke-linejoin="round"/>
<path d="M86.534 194.997C129.759 194.997 163.068 162.692 163.068 119.999C163.068 77.305 129.759 45 86.534 45C43.309 45 10 77.305 10 119.999C10 162.692 43.309 194.997 86.534 194.997ZM86.534 147.869C70.782 147.869 58.9833 136.195 58.9833 119.999C58.9833 103.803 70.782 92.1283 86.534 92.1283C102.286 92.1283 114.085 103.803 114.085 119.999C114.085 136.195 102.286 147.869 86.534 147.869Z" fill="#4452FE" stroke="white" stroke-width="20" stroke-linejoin="round"/>
<path d="M96 156.5C92 159 87.1952 159.067 86 159.5L95.5258 83.0022L101.283 32.2888L101.636 29.18C101.917 26.7676 103.947 24.9787 106.311 24.9205C106.53 24.9081 106.74 24.9192 106.958 24.9465C107.444 25.0068 107.909 25.1259 108.335 25.3112C110.225 26.1341 110.637 27.653 110.397 29.8127L96 156.5Z" fill="white"/>
<path d="M85.0281 159.635L99.1209 33.5333L98.6357 33.3262L99.3126 31.7571L99.7636 27.7345C100.11 24.6771 102.89 22.4572 105.959 22.8082C106.291 22.8513 106.567 22.9004 106.823 22.9687C107.091 23.0413 107.326 23.1288 107.557 23.228C109.83 24.2069 111.176 26.528 110.89 28.9918L96.1424 156.456C93.031 158.251 90.5228 158.91 85.0281 159.635ZM97.6844 81.7697L97.5197 83.2212L89.4607 156.102L92.6092 156.456L106.907 28.5422C106.99 27.8502 106.608 27.186 105.974 26.9102C105.903 26.884 105.844 26.8621 105.774 26.8359C105.699 26.8214 105.6 26.7982 105.486 26.7824C104.651 26.6864 103.872 27.307 103.774 28.1811L103.289 32.5123L97.6844 81.7697Z" fill="#371A45"/>
<path d="M95.531 82.9905C95.1335 82.6553 75.7581 66.8185 57.1611 78.4207C45.2787 85.825 36.1879 87.5197 30.7085 87.6383C27.4659 87.7182 24.8087 85.0705 24.8125 81.8187L24.9454 39.8986C24.9518 37.0361 27.0597 34.6066 29.8931 34.1872C48.3014 31.4845 52.4564 26.4289 62.4072 21.9882C88.0911 10.5168 101.045 31.8519 101.293 32.2654L95.531 82.9905Z" fill="white"/>
<path d="M28.4847 87.5347C27.7084 87.2461 26.9933 86.7929 26.3746 86.1881C25.1993 85.0283 24.553 83.4895 24.5497 81.8416L24.6826 39.9215C24.6887 36.9518 26.9123 34.3913 29.8455 33.9554C43.2138 31.9898 48.9679 28.8272 55.0621 25.4698C57.2837 24.2472 59.5902 22.976 62.2877 21.7698C87.8747 10.3427 100.946 31.2531 101.5 32.1415L101.568 32.247L101.533 32.3411L95.7366 83.482L95.3774 83.1878C95.1846 83.0224 75.7312 67.1432 57.2926 78.6436C45.4057 86.0596 36.2666 87.7765 30.7152 87.9086C29.9325 87.9256 29.1786 87.7926 28.4847 87.5347ZM86.4341 20.5573C80.353 18.2969 72.3766 17.8221 62.502 22.2377C59.8207 23.4365 57.5302 24.7004 55.3087 25.9229C49.1822 29.2951 43.3915 32.4842 29.9233 34.4663C27.2338 34.8588 25.1962 37.2073 25.1864 39.9347L25.0535 81.8548C25.0535 83.3676 25.6363 84.7891 26.7159 85.8464C27.7837 86.8993 29.1982 87.4518 30.6844 87.4152C36.18 87.2892 45.2076 85.5844 57.005 78.2288C74.3484 67.4057 92.5539 80.4113 95.3124 82.5344L101.008 32.3471C100.418 31.378 95.5616 23.9501 86.4341 20.5573Z" fill="#371A45"/>
<path d="M27.8724 89.1814C26.8608 88.8054 25.9398 88.2221 25.1444 87.4445C23.6229 85.9552 22.7859 83.9573 22.7988 81.8335L22.9317 39.9134C22.9471 36.0903 25.8118 32.7774 29.595 32.2157C42.6478 30.3069 48.2566 27.2108 54.213 23.936C56.4668 22.6987 58.8057 21.4127 61.5721 20.1651C88.5702 8.11124 102.861 31.0008 102.999 31.2398L103.357 31.8277L97.1123 86.9119L94.2473 84.535C94.0618 84.3857 75.586 69.2982 58.2146 80.1243C45.9833 87.747 36.5285 89.5206 30.7509 89.649C29.7494 89.6783 28.7781 89.5181 27.8724 89.1814ZM85.8279 22.2598C80.0879 20.1263 72.5477 19.6663 63.2174 23.8424C60.6006 25.0117 58.3424 26.2607 56.1575 27.4567C50.1644 30.7581 43.9572 34.1672 30.1896 36.1986C28.3501 36.4653 26.961 38.0776 26.9531 39.9355L26.8128 81.8395C26.8173 82.872 27.2166 83.8505 27.9545 84.5665C28.6807 85.2782 29.6364 85.6603 30.6498 85.6353C35.9308 85.5099 44.6267 83.8692 56.0839 76.7084C71.5245 67.079 87.5173 75.2326 93.9152 79.3779L99.2073 32.7621C97.9359 30.924 93.4733 25.1017 85.8279 22.2598Z" fill="#371A45"/>
<path d="M94.7372 84.8374L94.7254 84.833L96.3318 81.1596L94.7372 84.8374Z" fill="#371A45"/>
<path d="M100.478 34.1316L102.077 30.442L100.478 34.1316Z" fill="#371A45"/>
<g opacity="0.35">
<g opacity="0.35">
<g opacity="0.35">
<path opacity="0.35" d="M97.4439 27.5281C97.4439 27.5281 94.0817 62.9732 89.619 65.759C85.1563 68.5448 72.8711 57.0437 58.2947 67.8779C41.3017 80.5314 24.6856 75.7474 24.6856 75.7474L25.0395 81.3142C25.2518 84.6329 28.1934 87.0918 31.4822 86.7078C38.901 85.8374 51.2742 83.5957 57.7925 78.053C67.5046 69.7885 94.0397 79.4375 95.1244 81.7417C95.1244 81.7417 100.397 47.1003 99.5284 32.7609C99.343 29.5861 98.2772 28.2395 97.4439 27.5281Z" fill="#371A45"/>
</g>
</g>
</g>
<path d="M86.3515 41.7728C86.8122 40.6053 87.2847 39.4422 87.3721 38.1627C87.2982 38.0014 87.2361 37.8444 87.1739 37.6875C86.856 37.4622 86.5586 37.2178 86.2276 37.0278C83.8592 35.6923 81.3464 34.7449 78.6662 34.2841C75.1733 33.6685 71.7548 33.8972 68.4852 35.346C67.3 35.8694 66.174 36.5218 65.0375 37.1302C64.7339 37.2985 64.5182 37.3388 64.2208 37.0943C63.5141 36.5104 62.6817 36.1206 61.8217 35.8411C59.4843 35.1062 57.1703 35.317 54.8709 36.0287C52.3748 36.8011 50.1845 38.1557 48.0651 39.6437C47.1578 40.2838 47.1841 41.2574 48.12 41.8731C48.7027 42.2503 49.2854 42.6275 49.8798 43.0091C51.2821 43.9186 52.6888 44.8163 54.0837 45.7097C54.0662 45.7567 54.0692 45.7846 54.0487 45.8038C54.0239 45.8347 54.0107 45.87 53.9785 45.8848C53.1182 46.5423 53.075 47.3429 53.5608 48.233C53.6169 48.3341 53.6451 48.4383 53.6895 48.5351C53.9246 49.0911 54.1553 49.6588 54.3935 50.2427C53.7774 50.4956 53.1905 50.7059 52.6449 50.985C52.3619 51.1342 52.0997 51.3714 51.9316 51.6436C51.6626 52.0791 51.7788 52.631 52.1396 52.9927C52.5197 53.375 52.9841 53.4941 53.4712 53.3002C54.1065 53.0678 54.7152 52.7988 55.3636 52.5311C55.6934 53.3364 56.0011 54.0934 56.3249 54.8429C56.6887 55.7011 57.0345 55.9233 57.9641 55.9074C58.1271 55.9011 58.2975 55.9109 58.4841 55.9133C58.4538 56.1028 58.4248 56.2527 58.4003 56.3908C57.9147 58.6335 57.441 60.8805 56.9716 63.1158C56.7485 64.1841 57.4467 64.8989 58.5139 64.6931C59.4768 64.5155 60.4367 64.3101 61.4054 64.0811C63.6114 63.5489 65.7122 62.7233 67.5647 61.377C69.8892 59.6975 71.4912 57.5485 71.7911 54.5809C71.8069 54.4663 71.9474 54.3043 72.056 54.2643C73.064 53.9295 74.0899 53.6548 75.0979 53.32C77.3825 52.5761 79.3822 51.3381 81.134 49.6866C83.4644 47.4871 85.1721 44.8018 86.3515 41.7728ZM55.9028 43.9493C54.2827 42.9054 52.6008 41.8116 50.8719 40.7004C52.9082 39.4358 54.9657 38.3666 57.2735 37.9927C57.6287 37.9373 57.9914 37.8981 58.3497 37.8706C58.5406 37.8613 58.7197 37.8475 58.9062 37.8499C59.3748 37.8501 59.8537 37.8942 60.3034 37.981C61.0999 38.1432 61.8365 38.4304 62.309 38.7801C61.7741 39.2105 61.2555 39.6335 60.7206 40.0639C59.1161 41.3551 57.5116 42.6463 55.9028 43.9493ZM68.3922 57.0258C68.2328 57.2745 68.0661 57.507 67.8919 57.7234C67.7676 57.878 67.6519 58.009 67.5201 58.1475C67.0706 58.6364 66.5681 59.052 66.0272 59.4266C65.7179 59.6464 65.3895 59.8456 65.0537 60.0287C63.6124 60.845 62.0497 61.3754 60.428 61.7766C60.1917 61.836 59.9554 61.8954 59.7235 61.9431C59.9452 60.9144 60.1508 59.893 60.3638 58.8878C60.5812 57.8709 60.7898 56.8774 60.9984 55.884C63.7645 55.5734 66.4749 55.2689 69.1852 54.9644C69.1782 55.0555 69.1667 55.1583 69.1435 55.2568C69.019 55.8799 68.7446 56.474 68.3922 57.0258ZM81.2654 45.8397C79.9572 47.5222 78.4384 48.9791 76.5526 50.0185C75.0921 50.8144 73.5412 51.3491 71.943 51.7591C67.6004 52.8893 63.1719 53.2781 58.7119 53.4276C58.4975 53.4282 58.3755 53.3962 58.2881 53.163C58.1061 52.6803 57.8961 52.2006 57.6906 51.7092C57.6758 51.6769 57.6771 51.6373 57.6755 51.5697C57.8046 51.5106 57.9336 51.4515 58.0745 51.3967C60.9101 50.215 63.7574 49.0377 66.5974 47.8443C67.4189 47.507 67.6792 46.6265 67.1941 45.9508C66.849 45.4745 66.2626 45.3235 65.6626 45.569C63.955 46.273 62.2475 46.9771 60.5473 47.6973C59.2785 48.2297 58.0139 48.7503 56.6967 49.3049C56.4467 48.7166 56.2072 48.1724 56 47.6135C55.9718 47.5093 56.0858 47.3107 56.1839 47.2267C57.936 45.6824 59.6881 44.1381 61.4786 42.6349C63.2602 41.1552 65.179 39.8469 67.2025 38.7248C69.1132 37.6545 71.1037 36.8013 73.2958 36.5585C74.695 36.3958 76.1079 36.4123 77.498 36.6345C77.6287 36.6429 77.7776 36.8187 77.8323 36.9595C78.7315 39.1145 79.6307 41.2694 80.5182 43.4199C80.7902 44.0566 81.0536 44.7167 81.3374 45.3577C81.4231 45.5234 81.3985 45.6616 81.2654 45.8397ZM82.7569 43.5559C81.8577 41.401 80.988 39.3106 80.1228 37.2085C80.1359 37.1732 80.1534 37.1261 80.1826 37.0835C81.6868 37.6827 83.191 38.282 84.7188 38.8901C84.6475 39.1179 84.5805 39.334 84.5254 39.5545C84.0521 40.9717 83.464 42.2658 82.7569 43.5559Z" fill="#371A45"/>
<path d="M81.3352 45.33C81.0514 44.689 80.7837 44.0406 80.5159 43.3922C79.6167 41.2373 78.7293 39.0867 77.8301 36.9318C77.771 36.8027 77.6221 36.6269 77.4958 36.6067C76.1014 36.3963 74.6884 36.3798 73.2936 36.5307C71.1015 36.7735 69.1066 37.6385 67.2003 38.6971C65.1768 39.8191 63.2462 41.1231 61.4763 42.6072C59.6742 44.106 57.9294 45.6664 56.1817 47.1989C56.0836 47.2829 55.9696 47.4815 55.9978 47.5857C56.205 48.1447 56.4445 48.6889 56.6944 49.2771C58.0117 48.7226 59.2762 48.2019 60.5451 47.6695C62.2409 46.9611 63.9528 46.2453 65.6603 45.5413C66.2765 45.2883 66.8468 45.4468 67.1918 45.9231C67.6888 46.6032 67.4284 47.4837 66.5951 47.8165C63.7552 49.01 60.9078 50.1873 58.0722 51.369C57.9314 51.4237 57.8023 51.4829 57.6733 51.542C57.6867 51.6139 57.681 51.6653 57.6883 51.6815C57.8822 52.1685 58.1039 52.6525 58.2859 53.1352C58.3658 53.3524 58.4952 53.4004 58.7097 53.3998C63.1697 53.2503 67.5982 52.8616 71.9408 51.7313C73.5434 51.3096 75.0943 50.7749 76.5504 49.9908C78.4362 48.9514 79.955 47.4944 81.2632 45.8119C81.3993 45.6617 81.4239 45.5236 81.3352 45.33ZM76.4712 46.9626C74.3089 47.8456 71.8459 46.8364 70.9658 44.702C70.074 42.5632 71.095 40.1046 73.2381 39.201C75.349 38.3122 77.8077 39.3332 78.7112 41.4764C79.5913 43.6108 78.5851 46.1017 76.4712 46.9626Z" fill="white"/>
<path d="M82.7452 43.5517C81.8578 41.4011 80.9764 39.3064 80.1111 37.2042C80.1242 37.1689 80.1417 37.1219 80.171 37.0792C81.6752 37.6785 83.1794 38.2778 84.7071 38.8858C84.2244 40.5806 83.5619 42.0747 82.7452 43.5517Z" fill="#DB2C2C"/>
<path d="M62.3056 38.792C60.1824 40.5062 58.0592 42.2205 55.8994 43.9613C54.2837 42.9055 52.5974 41.8236 50.8685 40.7123C53.3755 39.1541 55.92 37.8911 58.9029 37.8619C60.1938 37.8464 61.5741 38.2389 62.3056 38.792Z" fill="#DB2C2C"/>
<path d="M65.0492 60.0404C63.3894 60.9763 61.6035 61.5308 59.719 61.9548C60.1624 59.8973 60.581 57.8708 61.0057 55.9C63.7718 55.5895 66.466 55.2924 69.1925 54.9805C69.1049 55.6842 68.7956 56.3725 68.3965 57.014C67.569 58.3397 66.3894 59.2801 65.0492 60.0404Z" fill="#DB2C2C"/>
<path d="M78.711 41.4762C77.8192 39.3374 75.3488 38.3121 73.2379 39.2008C71.083 40.1 70.062 42.5587 70.9656 44.7018C71.8456 46.8363 74.3086 47.8455 76.471 46.9624C78.5849 46.1015 79.5911 43.6106 78.711 41.4762ZM75.6476 45.1436C74.5562 45.5947 73.2563 45.058 72.7817 43.9578C72.2923 42.8254 72.8657 41.499 74.029 41.0344C74.0935 41.0049 74.1698 40.9797 74.2418 40.9663C74.4502 40.9099 74.6616 40.8813 74.876 40.8807C75.5105 40.9024 76.1356 41.2017 76.5556 41.6925C76.6927 41.8639 76.7975 42.0501 76.8818 42.2555C77.3551 43.3953 76.811 44.6791 75.6476 45.1436Z" fill="#371A45"/>
<path d="M75.6492 45.1438C74.5578 45.5949 73.2579 45.0582 72.7833 43.9581C72.2939 42.8256 72.8673 41.4992 74.0306 41.0347C74.0951 41.0051 74.1714 40.9799 74.2434 40.9665C74.4518 40.9101 74.6632 40.8816 74.8776 40.881C75.5121 40.9026 76.1372 41.2019 76.5572 41.6927C76.6943 41.8641 76.7991 42.0504 76.8834 42.2557C77.3567 43.3956 76.8126 44.6793 75.6492 45.1438Z" fill="#1F9EE5"/>
</svg>
