<svg width="656" height="355" viewBox="0 0 656 355" fill="none" xmlns="http://www.w3.org/2000/svg">
<path d="M200.776 249.096H175.521V201.929H120.925V249.096H73.0147C109.783 195.243 130.581 143.619 136.524 93.8517H75.9859C70.4149 145.105 45.1599 199.7 0.220703 256.153V303.32H117.954V350.116H175.521V303.32H200.776V249.096Z" fill="#F2F2F2"/>
<path d="M327.55 354.573C387.345 354.573 428.942 300.349 428.942 221.984C428.942 143.619 387.345 89.3949 327.55 89.3949C268.126 89.3949 226.53 143.619 226.53 221.984C226.53 300.349 268.126 354.573 327.55 354.573ZM327.55 299.235C303.038 299.235 285.582 267.295 285.582 221.984C285.582 176.673 303.038 144.733 327.55 144.733C352.805 144.733 369.889 176.673 369.889 221.984C369.889 267.295 352.805 299.235 327.55 299.235Z" fill="#F2F2F2"/>
<path d="M656 249.096H630.744V201.929H576.149V249.096H528.239C565.007 195.243 585.805 143.619 591.748 93.8517H531.21C525.639 145.105 500.384 199.7 455.444 256.153V303.32H573.178V350.116H630.744V303.32H656V249.096Z" fill="#F2F2F2"/>
<path d="M368.84 61.9048C365.406 83.6721 366.45 87.6449 352.744 86.2826C339.039 84.9203 341.516 81.5739 344.718 59.5073C347.294 43.1818 360.728 35.6737 360.728 35.6737C360.728 35.6737 371.415 45.5794 368.84 61.9048Z" fill="#828282"/>
<path d="M335.265 68.2418C339.903 84.7315 339.473 87.4524 349.77 85.7123C360.067 83.9722 357.987 81.2782 353.032 65.0334C349.67 52.8158 338.759 47.8622 338.759 47.8622C338.759 47.8622 331.355 55.9698 335.265 68.2418Z" fill="#828282"/>
<path d="M351.575 74.2836C354.039 83.3719 355.195 84.8686 349.772 85.7114C344.033 86.799 344.29 85.1665 341.826 76.0781C339.798 69.5203 343.629 64.6503 343.629 64.6503C343.629 64.6503 349.316 67.4264 351.575 74.2836Z" fill="#333333"/>
<path d="M356.12 86.0652C365.558 89.767 365.987 87.0461 375.603 71.9732C382.657 60.7909 378.548 51.5391 378.548 51.5391C378.548 51.5391 366.435 54.2041 359.382 65.3863C349.765 80.4592 346.912 82.6628 356.12 86.0652Z" fill="#828282"/>
<path d="M357.925 74.6358C352.714 82.9612 351.129 84.1855 356.122 86.0636C361.347 88.241 361.604 86.6085 366.815 78.283C370.818 72.3246 368.618 66.8552 368.618 66.8552C368.618 66.8552 361.927 68.6774 357.925 74.6358Z" fill="#333333"/>
<path d="M361.872 72.5424C359.984 84.5144 360.737 86.8001 353.062 86.0372C345.387 85.2744 346.827 83.2066 348.715 71.2346C350.174 61.9835 357.757 58.0391 357.757 58.0391C357.757 58.0391 363.014 63.5362 361.872 72.5424Z" fill="#444444"/>
<path d="M369.486 112.539C413.184 128.49 435.897 90.3992 435.897 90.3992C435.897 90.3992 423.278 170.394 369.006 164.999L369.486 112.539Z" fill="#3BAACF"/>
<path d="M372.07 147.341L369.323 164.755C423.278 170.394 435.897 90.3992 435.897 90.3992C435.897 90.3992 416.27 149.523 372.07 147.341Z" fill="#428BC1"/>
<path d="M328.368 108.456C281.064 115.361 270.884 74.0007 270.884 74.0007C270.884 74.0007 258.265 153.995 312.538 159.39L328.368 108.456Z" fill="#3BAACF"/>
<path d="M315.056 141.674L312.309 159.088C258.036 153.693 270.655 73.6985 270.655 73.6985C270.655 73.6985 271.543 135.138 315.056 141.674Z" fill="#428BC1"/>
<path d="M289.841 207.98C300.116 144.611 326.447 94.1673 351.117 96.6194C375.786 99.0715 385.636 153.111 375.91 216.535C364.235 290.544 314.977 325.72 314.977 325.72C314.977 325.72 278.483 281.744 289.841 207.98Z" fill="#C5D0D8"/>
<path d="M306.979 210.515C316.937 147.39 336.142 96.2385 350.944 97.7097C365.746 99.181 368.469 152.512 358.511 215.637C346.836 289.646 314.804 326.81 314.804 326.81C314.804 326.81 295.305 284.524 306.979 210.515Z" fill="#DAE3EA"/>
<path d="M329.137 98.3032C329.566 95.5823 332.102 93.6235 334.843 93.896L367.736 97.1654C370.477 97.4378 372.558 100.132 372.128 102.853L370.583 112.648L327.823 108.398L329.137 98.3032Z" fill="#C94747"/>
<path d="M338.686 99.5304C339.115 96.8095 340.555 94.7418 342.2 94.9053L360.839 96.7579C362.483 96.9214 363.237 99.2071 362.807 101.928L361.262 111.723L337.141 109.326L338.686 99.5304Z" fill="#F15744"/>
<path d="M338.294 87.8849C338.551 86.2524 340.771 84.5385 342.415 84.7019L363.795 86.8271C365.44 86.9906 366.51 89.0314 366.252 90.664L365.222 97.1941L337.264 94.4151L338.294 87.8849Z" fill="#3E4347"/>
<path d="M342.683 88.3188C342.941 86.6863 344.612 84.9178 345.708 85.0268L360.51 86.4981C361.606 86.607 362.445 88.3486 361.871 90.226L360.841 96.7562L341.653 94.849L342.683 88.3188Z" fill="#62727A"/>
<path d="M314.977 325.72C314.977 325.72 332.558 313.097 349.228 286.842L293.859 281.339C301.859 310.046 314.977 325.72 314.977 325.72Z" fill="#C94747"/>
<path d="M314.976 325.721C314.976 325.721 326.527 312.498 338.58 285.508L304.591 282.129C307.888 310.645 314.976 325.721 314.976 325.721Z" fill="#F15744"/>
<path d="M319.128 211.168C310.374 217.929 308.452 230.111 314.836 238.377C321.22 246.643 333.492 247.863 342.246 241.102C351.001 234.34 352.922 222.158 346.538 213.892C340.155 205.626 327.882 204.407 319.128 211.168Z" fill="#EDF4F9"/>
<path d="M323.054 216.259C317.277 220.721 316.008 228.762 320.222 234.217C324.435 239.673 332.535 240.478 338.313 236.015C344.09 231.553 345.359 223.513 341.145 218.057C336.932 212.602 328.832 211.797 323.054 216.259Z" fill="#3BAACF"/>
<path d="M327.713 156.749C318.959 163.51 317.037 175.692 323.421 183.958C329.805 192.224 342.077 193.444 350.831 186.683C359.586 179.921 361.507 167.74 355.123 159.474C348.74 151.208 336.467 149.988 327.713 156.749Z" fill="#EDF4F9"/>
<path d="M331.638 161.841C325.861 166.303 324.592 174.344 328.806 179.799C333.019 185.255 341.119 186.06 346.897 181.597C352.674 177.135 353.943 169.095 349.729 163.639C345.516 158.184 337.416 157.379 331.638 161.841Z" fill="#3BAACF"/>
<path d="M345.006 280.068C345.264 278.435 347.166 276.966 348.811 277.13C350.455 277.293 351.842 279.089 351.585 280.722C351.327 282.354 349.425 283.823 347.781 283.66C346.136 283.496 344.749 281.7 345.006 280.068Z" fill="white"/>
<path d="M333.836 276.748C332.435 277.83 332.128 279.779 333.149 281.101C334.171 282.424 336.134 282.619 337.535 281.537C338.936 280.455 339.243 278.506 338.222 277.184C337.2 275.861 335.237 275.666 333.836 276.748Z" fill="white"/>
<path d="M320.681 275.439C319.28 276.521 318.973 278.47 319.994 279.793C321.016 281.115 322.979 281.311 324.38 280.229C325.781 279.147 326.088 277.198 325.067 275.875C324.045 274.553 322.082 274.358 320.681 275.439Z" fill="white"/>
<path d="M307.841 273.886C306.44 274.968 306.133 276.917 307.154 278.24C308.176 279.562 310.139 279.757 311.54 278.676C312.941 277.594 313.248 275.645 312.227 274.322C311.205 273 309.242 272.805 307.841 273.886Z" fill="white"/>
<path d="M294.914 272.878C293.514 273.96 293.206 275.909 294.228 277.231C295.249 278.554 297.212 278.749 298.613 277.667C300.014 276.585 300.321 274.636 299.3 273.314C298.279 271.991 296.315 271.796 294.914 272.878Z" fill="white"/>
</svg>
