<svg width="101" height="54" viewBox="0 0 101 54" fill="none" xmlns="http://www.w3.org/2000/svg">
<path opacity="0.22" d="M8.38934 38.5268C8.06667 38.8492 7.744 39.1716 7.58267 39.6552C7.42134 40.4612 7.90534 41.4284 7.90534 42.3956C7.90534 44.1688 5.808 45.136 4.19467 46.1032C1.61333 47.7152 0 50.6168 0 53.6796C4.356 53.6796 8.712 53.5184 13.068 53.0348C16.6173 52.7124 20.1667 52.2288 23.716 51.9064C25.168 51.7452 26.4587 51.584 27.9107 51.4228C29.3627 51.2616 30.6533 51.1004 32.1053 50.9392C40.0107 49.6496 47.7547 47.0704 54.8533 43.3628C57.4347 41.912 60.016 40.3 62.7587 39.3328C65.34 38.3656 67.9213 37.882 70.5027 37.076C77.7627 34.8192 84.0547 29.9832 90.024 25.1472C90.8307 24.5024 91.6373 23.8576 91.7987 22.8904C91.96 22.4068 91.7987 21.9232 91.96 21.4396C92.444 19.5052 94.864 19.1828 96.316 17.732C97.1227 16.926 97.4453 15.7976 97.9293 14.6692C98.8973 11.7676 99.8653 8.86598 100.833 5.80318C84.8613 2.09558 67.4373 5.80319 54.5307 15.6364C53.4013 16.6036 52.1107 17.5708 50.6587 18.0544C49.5293 18.538 48.4 18.538 47.1093 18.8604C42.108 20.15 38.5587 24.6636 34.364 27.7264C32.2667 29.1772 30.008 30.3056 27.9107 31.7564C24.8453 34.0132 22.264 37.076 20.6507 40.6224C24.2 41.106 27.7493 41.5896 31.46 41.2672C35.0093 40.9448 38.5587 39.494 41.14 36.9148C46.464 36.9148 51.9493 35.7864 56.7893 33.6908C63.2427 31.1116 68.8893 26.9204 75.1813 23.6964C67.5987 19.6664 57.4347 21.4396 51.788 27.7264C55.0147 25.3084 58.8867 23.8576 62.92 23.8576C63.2427 23.8576 63.7267 23.8576 63.888 24.0188C64.6947 24.6636 63.5653 25.9532 62.5973 26.4368C60.1773 27.5652 57.7573 28.8548 55.3373 29.9832C53.5627 30.9504 51.6267 31.7564 49.6907 32.24C47.7547 32.7236 45.6573 32.5624 43.7213 32.7236C40.9787 32.8848 38.236 33.6908 35.6547 34.9804C33.7187 35.9476 31.46 37.2372 29.6853 35.9476C37.1067 29.016 45.496 23.2128 54.692 18.6992C55.8213 18.2156 56.7893 17.732 57.7573 16.926C58.4027 16.4424 59.048 15.6364 59.6933 15.1528C61.952 12.896 65.1787 11.9288 68.244 10.9616C74.6973 8.86598 81.4733 6.60919 88.4107 7.09279C90.1853 7.25399 92.6053 8.05999 92.444 9.99439C92.444 10.6392 91.96 11.284 91.6373 11.7676C83.5707 23.5352 71.4707 32.24 58.4027 38.0432C45.3347 44.0076 31.2987 47.3928 17.424 50.6168C16.94 50.778 16.2947 50.778 15.8107 50.6168C15.004 50.1332 14.8427 48.8436 14.036 48.36C13.2293 47.8764 12.4227 48.36 11.4547 48.1988C9.35734 48.1988 8.06667 45.7808 8.38934 43.6852C8.712 41.5896 10.164 39.9776 11.616 38.5268C28.556 20.7948 50.0133 7.4152 73.568 0C54.208 5.1584 35.9773 14.3468 20.6507 27.0816C16.2947 30.628 12.2613 34.4968 8.38934 38.5268Z" fill="#D0E3F4"/>
</svg>
